<?xml version="1.0" encoding="UTF-8"?>
<svg version="1.1" xmlns="http://www.w3.org/2000/svg" width="1024" height="1024">
<path d="M0 0 C337.92 0 675.84 0 1024 0 C1024 337.92 1024 675.84 1024 1024 C686.08 1024 348.16 1024 0 1024 C0 686.08 0 348.16 0 0 Z " fill="#FDFDFD" transform="translate(0,0)"/>
<path d="M0 0 C1.47578382 -0.00374648 2.95156567 -0.00835192 4.42734444 -0.01373065 C8.44256705 -0.02585347 12.45770567 -0.02571297 16.47294235 -0.02334189 C20.81949366 -0.02293097 25.16601902 -0.03399911 29.51255798 -0.04345703 C38.01443808 -0.06001029 46.51629043 -0.06556405 55.0181853 -0.06668179 C61.93746245 -0.0676352 68.85673052 -0.07176008 75.77600479 -0.07808304 C95.43789211 -0.0956819 115.09975768 -0.10492432 134.76165293 -0.10342209 C136.34881854 -0.10330222 136.34881854 -0.10330222 137.9680481 -0.10317993 C139.02746633 -0.10309817 140.08688456 -0.10301641 141.17840637 -0.10293217 C158.32673506 -0.10212021 175.47497571 -0.12123871 192.62327896 -0.14945666 C210.27463801 -0.1782707 227.92595425 -0.19199221 245.57733738 -0.19026911 C255.46958393 -0.18960803 265.36173825 -0.19497578 275.25396347 -0.21662521 C283.68035458 -0.23494979 292.10661168 -0.23909293 300.53301422 -0.22560637 C304.82164289 -0.21913235 309.11001534 -0.21875422 313.3986187 -0.23631287 C360.51617437 -0.41693504 405.09242171 9.16760436 441.84890747 40.26742554 C442.7177356 40.99445679 443.58656372 41.72148804 444.48171997 42.47055054 C477.45050157 71.09296543 497.45717111 110.97440652 501.84890747 154.26742554 C502.46539253 164.32201208 502.38821954 174.39719333 502.34248805 184.46621788 C502.32908774 188.41231993 502.33928315 192.35838008 502.34625244 196.30448914 C502.35623588 203.99611455 502.3451829 211.68756532 502.32655184 219.37916898 C502.30558806 228.36272681 502.30592931 237.3462488 502.306897 246.32982648 C502.3078939 262.36887705 502.28969026 278.40784729 502.26052856 294.4468689 C502.2323295 309.96478741 502.21818883 325.48263534 502.21951294 341.00057983 C502.21959285 341.95759505 502.21967276 342.91461026 502.2197551 343.90062594 C502.21983581 344.85608834 502.21991652 345.81155075 502.21999967 346.79596657 C502.22138326 364.5381065 502.20958138 382.28021684 502.19169324 400.02234713 C502.18569186 406.26641414 502.18353791 412.51047565 502.18262863 418.75454521 C502.18125694 426.37091474 502.17222449 433.98723426 502.15396301 441.60358261 C502.14480335 445.4803387 502.13860747 449.35703137 502.14115143 453.23379898 C502.16091213 492.38376802 502.16091213 492.38376802 496.53640747 511.07992554 C496.22155396 512.1539563 495.90670044 513.22798706 495.58230591 514.33456421 C494.69429062 517.31993735 493.78012751 520.29528607 492.84890747 523.26742554 C492.45832153 524.51523804 492.0677356 525.76305054 491.66531372 527.04867554 C485.07342324 545.78606385 473.41906111 563.58065378 459.91921997 578.04476929 C458.05264791 580.04869288 456.29274673 582.10495468 454.53640747 584.20492554 C444.72038595 595.33718631 433.38200313 603.47695168 420.84890747 611.26742554 C420.17843384 611.68798218 419.50796021 612.10853882 418.81716919 612.5418396 C405.90901548 620.53677657 391.51790131 626.9622592 376.56155396 629.85751343 C374.82721753 630.11475192 374.82721753 630.11475192 373.84890747 631.26742554 C354.56000146 636.25586975 334.61992986 635.84483978 314.87499869 635.77566516 C310.38079064 635.76439178 305.88663048 635.77655089 301.39242554 635.7855072 C292.62530866 635.79933041 283.85833731 635.79196592 275.09122755 635.77683162 C264.85477135 635.75984312 254.6183501 635.76319768 244.38188414 635.7669257 C226.10564466 635.77278389 207.82947441 635.75871129 189.55325317 635.73397827 C171.86637785 635.71004593 154.17959491 635.70298352 136.4927063 635.71347046 C117.17017163 635.72490689 97.84767953 635.7267775 78.52514535 635.71237236 C76.46093484 635.71084672 74.39672433 635.70932636 72.33251381 635.70781136 C71.31721783 635.70705354 70.30192186 635.70629573 69.25585934 635.70551495 C62.13958788 635.70079453 55.02333559 635.70260742 47.90706444 635.70687675 C39.22537824 635.71182812 30.54377896 635.70570928 21.86211254 635.68598246 C17.4423129 635.67618329 13.02264495 635.67092458 8.60283852 635.67887497 C-33.14380052 635.74607649 -33.14380052 635.74607649 -52.21359253 629.57992554 C-53.43236084 629.19755737 -53.43236084 629.19755737 -54.67575073 628.8074646 C-98.66968481 614.59423568 -135.07116584 584.59660972 -156.27194214 543.35043335 C-164.12941378 527.54073525 -169.48685624 511.72162009 -172.15109253 494.26742554 C-172.31779375 493.18292224 -172.48449497 492.09841895 -172.65624774 490.98105192 C-173.90064641 482.3557499 -174.44087853 473.97109843 -174.41851807 465.24215698 C-174.42226728 463.9009156 -174.42687378 462.55967639 -174.43224871 461.21844053 C-174.44433752 457.57979608 -174.4442352 453.94124453 -174.44185996 450.30258465 C-174.44144816 446.35961723 -174.45252528 442.4166782 -174.4619751 438.47372437 C-174.47850882 430.76574247 -174.48408119 423.05779118 -174.48519985 415.34979302 C-174.48615407 409.07603052 -174.49028289 402.80227801 -174.4966011 396.52851868 C-174.51419354 378.69361181 -174.52344323 360.85872891 -174.52194016 343.02381331 C-174.52186024 342.06457644 -174.52178033 341.10533957 -174.521698 340.11703491 C-174.52161624 339.15661016 -174.52153448 338.19618541 -174.52145024 337.20665687 C-174.52063815 321.65817762 -174.53976167 306.10979542 -174.56797473 290.56134421 C-174.59679631 274.54960569 -174.61050991 258.53791435 -174.60878718 242.52614927 C-174.60812642 233.55559401 -174.61347976 224.58514047 -174.63514328 215.61460876 C-174.65347778 207.97432988 -174.65760297 200.33419883 -174.64412443 192.69390732 C-174.63765567 188.80638868 -174.6372524 184.91915261 -174.65483093 181.03166199 C-174.87152493 129.85049142 -160.4065333 87.71005761 -125.15109253 50.26742554 C-124.49495972 49.5571521 -123.8388269 48.84687866 -123.16281128 48.11508179 C-112.17851515 36.61332417 -98.87393282 28.10585572 -85.15109253 20.26742554 C-84.0244519 19.6190271 -82.89781128 18.97062866 -81.73703003 18.30258179 C-66.30155233 10.02150434 -48.88977082 4.71969412 -31.53267395 2.58159697 C-29.74605965 2.3459119 -27.96418929 2.07379253 -26.1856097 1.78363264 C-17.41202803 0.38893881 -8.86997433 -0.02169376 0 0 Z " fill="#64B6D1" transform="translate(348.1510925292969,170.73257446289063)"/>
<path d="M0 0 C1.25127686 0.00080566 2.50255371 0.00161133 3.79174805 0.00244141 C13.85833588 0.06571037 23.88877388 0.47346595 33.9375 1.0625 C34.64187195 1.10170563 35.3462439 1.14091125 36.07196045 1.18130493 C50.45019492 1.99987091 61.53510011 3.90730358 71.8125 14.63671875 C73.125 16.1875 73.125 16.1875 74.125 18.1875 C76.15221338 18.78097406 78.19778019 19.31230064 80.25 19.8125 C88.0838884 22.10849144 91.44851547 25.76548208 95.5625 32.5625 C97.33129314 40.816868 96.06570117 47.7572217 92.125 55.1875 C90.9803125 56.5796875 90.9803125 56.5796875 89.8125 58 C87.87331806 60.01098937 87.87331806 60.01098937 88.28125 62.32421875 C89.41555919 66.17351801 91.15453926 69.60187507 92.9375 73.1875 C102.06515437 92.14290672 106.46558611 113.44030159 101.125 134.1875 C100.80225429 135.61172331 100.48076145 137.03623081 100.16015625 138.4609375 C97.55473823 149.59473434 93.74749595 159.24980207 88.125 169.1875 C87.61582031 170.13625 87.10664062 171.085 86.58203125 172.0625 C80.74542067 182.14528229 71.88766168 191.55913062 62.8671875 198.92578125 C60.53616778 200.84837444 58.70942256 202.67173588 56.8125 205 C54.26372455 207.99889032 51.60277556 210.61417613 48.625 213.1875 C45.04092739 216.28723847 41.9974895 219.5590684 38.94921875 223.17578125 C36.23517364 226.16878603 33.18156188 228.73165715 30.12890625 231.37109375 C27.83693265 233.44861368 26.02104412 235.74972899 24.125 238.1875 C22.47497172 239.54136936 20.8075613 240.87428142 19.125 242.1875 C16.26333918 244.90240898 13.65053788 247.72710555 11.125 250.75 C8.69304854 253.62977883 6.11945392 255.88407391 3.125 258.1875 C-0.39154592 261.52371023 -3.50155735 265.06838495 -6.54296875 268.83203125 C-6.98253906 269.27933594 -7.42210937 269.72664063 -7.875 270.1875 C-8.535 270.1875 -9.195 270.1875 -9.875 270.1875 C-9.875 270.8475 -9.875 271.5075 -9.875 272.1875 C-11.37890625 273.6328125 -11.37890625 273.6328125 -13.4375 275.3125 C-17.09115402 278.41100518 -20.19774556 281.71159704 -23.30078125 285.3515625 C-27.3275831 290.04783265 -31.94455002 294.06513523 -36.59375 298.125 C-39.10947934 300.39949502 -41.49171025 302.77478692 -43.875 305.1875 C-69.875 331.1875 -69.875 331.1875 -72.37890625 333.6796875 C-74.12101499 335.42997515 -75.84636144 337.19703722 -77.55859375 338.9765625 C-78.46738281 339.91242188 -79.37617187 340.84828125 -80.3125 341.8125 C-81.21871094 342.75351562 -82.12492188 343.69453125 -83.05859375 344.6640625 C-87.83318662 348.94199175 -91.84721076 350.62548751 -98.25 350.6875 C-99.83941406 350.73390625 -99.83941406 350.73390625 -101.4609375 350.78125 C-109.17331857 349.43996634 -114.769435 343.73339031 -120.10971069 338.34719849 C-120.79144368 337.67155661 -121.47317666 336.99591472 -122.17556822 336.29979885 C-124.44238807 334.04953579 -126.69844121 331.78879021 -128.95458984 329.52783203 C-130.5842403 327.9055264 -132.21451075 326.28384338 -133.84535217 324.66273499 C-138.26379647 320.26647888 -142.67257966 315.86065525 -147.07899427 311.45234537 C-150.76631355 307.7649062 -154.45796924 304.08182312 -158.14950812 300.39860904 C-167.36450074 291.2039417 -176.56983517 281.99966996 -185.77107127 272.79123877 C-193.7359243 264.82082033 -201.71386787 256.8636537 -209.69805925 248.91261126 C-217.91858971 240.72594319 -226.12942401 232.52966298 -234.33097422 224.32397926 C-238.92650315 219.72639035 -243.52565927 215.13258905 -248.13450241 210.54834366 C-252.47465448 206.23059175 -256.80237929 201.90074553 -261.12122917 197.56168938 C-262.69943569 195.98009555 -264.28183066 194.40266719 -265.86891747 192.82998466 C-289.02254871 169.87188333 -303.84584182 142.70578664 -304.1875 109.5 C-304.12261266 84.78420261 -296.57535563 61.46021188 -280.875 42.1875 C-280.21113281 41.35992187 -279.54726563 40.53234375 -278.86328125 39.6796875 C-261.93871675 19.72058926 -235.92470794 5.81209393 -209.875 3.1875 C-193.13620658 2.18489361 -175.88021003 1.60611536 -159.875 7.1875 C-158.71291016 7.56551758 -158.71291016 7.56551758 -157.52734375 7.95117188 C-137.80185545 14.38742275 -120.76699423 25.41233082 -107.75 41.875 C-105.15209405 45.07908401 -102.06019865 47.58386852 -98.875 50.1875 C-95.90665468 48.86395209 -93.94867144 47.44535334 -91.75 45.0625 C-90.2421875 43.4296875 -90.2421875 43.4296875 -88.875 42.1875 C-88.215 42.1875 -87.555 42.1875 -86.875 42.1875 C-86.49021484 41.29611328 -86.49021484 41.29611328 -86.09765625 40.38671875 C-84.75790435 37.97687747 -83.4376757 36.73878012 -81.3125 35 C-78.26477769 32.4420902 -75.5256037 29.78336495 -72.8125 26.875 C-53.76439619 7.76177447 -26.35609225 -0.01776616 0 0 Z " fill="#62B2DD" transform="translate(609.875,294.8125)"/>
<path d="M0 0 C1.25127686 0.00080566 2.50255371 0.00161133 3.79174805 0.00244141 C13.85833588 0.06571037 23.88877388 0.47346595 33.9375 1.0625 C34.64187195 1.10170563 35.3462439 1.14091125 36.07196045 1.18130493 C50.45019492 1.99987091 61.53510011 3.90730358 71.8125 14.63671875 C73.125 16.1875 73.125 16.1875 74.125 18.1875 C76.15221338 18.78097406 78.19778019 19.31230064 80.25 19.8125 C88.0838884 22.10849144 91.44851547 25.76548208 95.5625 32.5625 C97.33129314 40.816868 96.06570117 47.7572217 92.125 55.1875 C90.9803125 56.5796875 90.9803125 56.5796875 89.8125 58 C87.87331806 60.01098937 87.87331806 60.01098937 88.28125 62.32421875 C89.41555919 66.17351801 91.15453926 69.60187507 92.9375 73.1875 C102.06515437 92.14290672 106.46558611 113.44030159 101.125 134.1875 C100.80225429 135.61172331 100.48076145 137.03623081 100.16015625 138.4609375 C97.55473823 149.59473434 93.74749595 159.24980207 88.125 169.1875 C87.61582031 170.13625 87.10664062 171.085 86.58203125 172.0625 C80.74542067 182.14528229 71.88766168 191.55913062 62.8671875 198.92578125 C60.53616778 200.84837444 58.70942256 202.67173588 56.8125 205 C54.26372455 207.99889032 51.60277556 210.61417613 48.625 213.1875 C45.04092739 216.28723847 41.9974895 219.5590684 38.94921875 223.17578125 C36.23517364 226.16878603 33.18156188 228.73165715 30.12890625 231.37109375 C27.83693265 233.44861368 26.02104412 235.74972899 24.125 238.1875 C22.47497172 239.54136936 20.8075613 240.87428142 19.125 242.1875 C16.26333918 244.90240898 13.65053788 247.72710555 11.125 250.75 C8.69304854 253.62977883 6.11945392 255.88407391 3.125 258.1875 C-0.39154592 261.52371023 -3.50155735 265.06838495 -6.54296875 268.83203125 C-6.98253906 269.27933594 -7.42210937 269.72664063 -7.875 270.1875 C-8.535 270.1875 -9.195 270.1875 -9.875 270.1875 C-9.875 270.8475 -9.875 271.5075 -9.875 272.1875 C-11.37890625 273.6328125 -11.37890625 273.6328125 -13.4375 275.3125 C-17.09115402 278.41100518 -20.19774556 281.71159704 -23.30078125 285.3515625 C-27.3275831 290.04783265 -31.94455002 294.06513523 -36.59375 298.125 C-39.10947934 300.39949502 -41.49171025 302.77478692 -43.875 305.1875 C-69.875 331.1875 -69.875 331.1875 -72.37890625 333.6796875 C-74.12101499 335.42997515 -75.84636144 337.19703722 -77.55859375 338.9765625 C-78.46738281 339.91242188 -79.37617187 340.84828125 -80.3125 341.8125 C-81.21871094 342.75351562 -82.12492188 343.69453125 -83.05859375 344.6640625 C-87.83318662 348.94199175 -91.84721076 350.62548751 -98.25 350.6875 C-99.83941406 350.73390625 -99.83941406 350.73390625 -101.4609375 350.78125 C-109.17331857 349.43996634 -114.769435 343.73339031 -120.10971069 338.34719849 C-120.79144368 337.67155661 -121.47317666 336.99591472 -122.17556822 336.29979885 C-124.44238807 334.04953579 -126.69844121 331.78879021 -128.95458984 329.52783203 C-130.5842403 327.9055264 -132.21451075 326.28384338 -133.84535217 324.66273499 C-138.26379647 320.26647888 -142.67257966 315.86065525 -147.07899427 311.45234537 C-150.76631355 307.7649062 -154.45796924 304.08182312 -158.14950812 300.39860904 C-167.36450074 291.2039417 -176.56983517 281.99966996 -185.77107127 272.79123877 C-193.7359243 264.82082033 -201.71386787 256.8636537 -209.69805925 248.91261126 C-217.91858971 240.72594319 -226.12942401 232.52966298 -234.33097422 224.32397926 C-238.92650315 219.72639035 -243.52565927 215.13258905 -248.13450241 210.54834366 C-252.47465448 206.23059175 -256.80237929 201.90074553 -261.12122917 197.56168938 C-262.69943569 195.98009555 -264.28183066 194.40266719 -265.86891747 192.82998466 C-289.02254871 169.87188333 -303.84584182 142.70578664 -304.1875 109.5 C-304.12261266 84.78420261 -296.57535563 61.46021188 -280.875 42.1875 C-280.21113281 41.35992187 -279.54726563 40.53234375 -278.86328125 39.6796875 C-261.93871675 19.72058926 -235.92470794 5.81209393 -209.875 3.1875 C-193.13620658 2.18489361 -175.88021003 1.60611536 -159.875 7.1875 C-158.71291016 7.56551758 -158.71291016 7.56551758 -157.52734375 7.95117188 C-137.80185545 14.38742275 -120.76699423 25.41233082 -107.75 41.875 C-105.15209405 45.07908401 -102.06019865 47.58386852 -98.875 50.1875 C-95.90665468 48.86395209 -93.94867144 47.44535334 -91.75 45.0625 C-90.2421875 43.4296875 -90.2421875 43.4296875 -88.875 42.1875 C-88.215 42.1875 -87.555 42.1875 -86.875 42.1875 C-86.49021484 41.29611328 -86.49021484 41.29611328 -86.09765625 40.38671875 C-84.75790435 37.97687747 -83.4376757 36.73878012 -81.3125 35 C-78.26477769 32.4420902 -75.5256037 29.78336495 -72.8125 26.875 C-53.76439619 7.76177447 -26.35609225 -0.01776616 0 0 Z M-60 69.3125 C-65.23441682 74.62707634 -70.45230781 79.84900832 -76.1730957 84.64331055 C-77.96092242 86.26546002 -79.43670287 87.98720487 -80.9375 89.875 C-85.68309976 95.62920134 -91.34948256 97.83494826 -98.625 98.5625 C-109.15177541 98.28204168 -117.23311757 87.16835011 -124.0625 80.1875 C-125.23562003 78.99930047 -126.40944318 77.81179472 -127.58398438 76.625 C-129.74290411 74.44175457 -131.89765009 72.25457042 -134.04760742 70.0625 C-152.0589686 51.71602413 -169.77199127 40.15469222 -196.125 39.75 C-215.04073302 39.63513987 -231.89355625 46.827841 -245.6328125 59.88671875 C-258.32138526 72.90687442 -265.51272311 89.20788401 -265.3125 107.4375 C-265.30275146 108.44111572 -265.29300293 109.44473145 -265.28295898 110.47875977 C-264.78710806 131.41375399 -255.66740881 147.77299718 -240.875 162.1875 C-239.18020918 163.78141763 -237.472435 165.36057361 -235.763484 166.93929386 C-223.22811534 178.55248442 -211.26600274 190.74388945 -199.23555565 202.8740406 C-195.15897417 206.9837132 -191.07603388 211.08703009 -186.99177551 215.18907166 C-185.58501963 216.60208469 -184.17826515 218.01509911 -182.77151203 219.42811489 C-182.06834028 220.13440277 -181.36516853 220.84069065 -180.64068854 221.56838119 C-171.15970339 231.09220062 -161.683681 240.62088962 -152.22143555 250.16333008 C-145.79689982 256.64221569 -139.36361743 263.11227297 -132.92004472 269.57222742 C-129.52080151 272.98084997 -126.12631738 276.39393347 -122.74260521 279.81797981 C-119.57574056 283.02251206 -116.39760439 286.21540146 -113.21022224 289.39952278 C-112.04159923 290.57112855 -110.87729236 291.74705712 -109.7175827 292.92748642 C-108.13934544 294.53267325 -106.54660665 296.12188244 -104.94914246 297.707901 C-104.0604909 298.60246034 -103.17183935 299.49701967 -102.25625896 300.41868687 C-100.07144103 302.43896114 -100.07144103 302.43896114 -97.65962696 302.04894161 C-95.56545015 301.03807991 -94.27806243 299.91659291 -92.66796875 298.23828125 C-92.08080078 297.63693359 -91.49363281 297.03558594 -90.88867188 296.41601562 C-90.28603516 295.78373047 -89.68339844 295.15144531 -89.0625 294.5 C-84.93299652 290.21738516 -80.80508814 286.15804163 -76.15356445 282.43823242 C-75.52067505 281.81911987 -75.52067505 281.81911987 -74.875 281.1875 C-74.875 280.5275 -74.875 279.8675 -74.875 279.1875 C-74.31855427 278.95526104 -73.76210854 278.72302208 -73.18880081 278.48374557 C-70.26346714 276.84490492 -68.23497417 274.81222976 -65.85418701 272.4475708 C-65.362304 271.96163004 -64.87042099 271.47568927 -64.36363244 270.97502303 C-62.71777678 269.3465004 -61.07913392 267.71091159 -59.44042969 266.07519531 C-58.26110027 264.90512581 -57.08137741 263.73545276 -55.90129089 262.56614685 C-52.69556694 259.38665618 -49.49652875 256.20052181 -46.2994566 253.01233387 C-44.29819397 251.0169401 -42.29576575 249.02272329 -40.29297638 247.028862 C-34.01675063 240.77999332 -27.74455392 234.52712174 -21.47813201 228.26842141 C-14.26475536 221.06398335 -7.03854514 213.87276025 0.19934201 206.69294858 C5.80424828 201.13144493 11.39740696 195.55830026 16.98198581 189.97638583 C20.31173944 186.64871787 23.64606547 183.3259806 26.99271393 180.01529694 C30.14815438 176.89310755 33.28860001 173.7565452 36.41873741 170.60899544 C37.5615059 169.46470104 38.70929078 168.32538762 39.86276436 167.19188499 C54.29520582 152.99450535 63.49187515 136.36063853 63.8125 115.75 C63.71175631 105.51410792 61.83210281 97.23559761 57.125 88.1875 C56.63483398 87.19024902 56.63483398 87.19024902 56.13476562 86.17285156 C52.34756975 78.20355729 52.34756975 78.20355729 45.5234375 73.2734375 C42.80028968 73.08373583 42.80028968 73.08373583 40.0234375 73.22265625 C32.05938667 73.12605725 24.40012688 68.46464131 18.80078125 63.05078125 C12.74407115 56.31639729 10.4862697 48.84109177 8.125 40.1875 C-21.1579257 34.84358329 -40.44181163 49.45202123 -60 69.3125 Z " fill="#FCFDFD" transform="translate(609.875,294.8125)"/>
</svg>
