<svg version="1.1" id="Layer_1" xmlns="http://www.w3.org/2000/svg" xmlns:xlink="http://www.w3.org/1999/xlink" x="0px" y="0px"
	 width="100%" viewBox="0 0 1280 853" enable-background="new 0 0 1280 853" xml:space="preserve">
<path fill="#FFFFFF" opacity="1.000000" stroke="none" 
	d="
M919.000000,854.000000 
	C612.702454,854.000000 306.904907,854.000000 1.053676,854.000000 
	C1.053676,569.735718 1.053676,285.471436 1.053676,1.103578 
	C427.547668,1.103578 854.095337,1.103578 1280.821533,1.103578 
	C1280.821533,285.333252 1280.821533,569.666626 1280.821533,854.000000 
	C1160.471191,854.000000 1039.985596,854.000000 919.000000,854.000000 
M451.994141,381.394226 
	C451.687622,381.188354 451.381134,380.982483 451.189026,380.759521 
	C451.189026,380.759521 451.227325,380.650452 451.140533,379.892822 
	C443.006012,358.911896 444.731232,338.274567 453.094238,317.780304 
	C460.945374,298.540466 473.542175,282.828552 489.150330,269.485382 
	C508.648621,252.816589 531.489380,243.379593 556.825439,240.198090 
	C580.172241,237.266403 602.845154,240.575439 625.498230,249.148026 
	C628.872742,251.679962 632.188232,254.297180 635.653625,256.697906 
	C636.878540,257.546509 638.746033,258.665466 639.843872,258.285339 
	C643.887878,256.885101 647.947937,255.269562 651.612671,253.082687 
	C664.151611,245.600189 676.620422,238.461884 691.197083,235.025726 
	C709.593872,230.689041 727.763794,229.410019 746.342896,233.043671 
	C761.414856,235.991425 774.614807,242.510071 786.590332,252.042023 
	C790.984314,255.539413 796.263062,257.925232 801.144348,260.864838 
	C801.144348,260.864838 801.178040,260.897369 801.110535,261.662811 
	C804.757263,265.102081 807.961731,269.365753 812.226135,271.653900 
	C814.571960,272.912567 818.701294,270.847107 822.744019,270.158081 
	C822.774353,270.429779 823.070312,271.946655 823.089722,273.467072 
	C823.153381,278.453003 823.192688,283.441833 823.089355,288.426361 
	C823.029114,291.328613 824.326111,292.348724 827.755676,291.959839 
	C828.223328,291.970612 828.690979,291.981384 829.773315,292.482971 
	C837.510986,292.583527 845.250305,292.790985 852.984802,292.676788 
	C854.238525,292.658325 856.526367,291.233826 856.542664,290.423279 
	C856.650330,285.058960 856.268250,279.684845 856.020203,273.420258 
	C856.045715,272.824921 856.071167,272.229614 856.559082,271.169983 
	C857.444946,266.340088 855.415588,264.636810 850.598328,264.937103 
	C845.166443,265.275696 839.694275,264.905670 834.246399,265.070343 
	C830.138062,265.194550 826.040588,265.675415 821.176208,266.057373 
	C821.114075,265.307159 820.975464,263.633636 821.794434,261.968872 
	C828.241455,261.918304 834.688538,261.867737 842.038025,261.917328 
	C846.352661,261.899017 850.667603,261.902435 854.981934,261.857300 
	C861.314148,261.791046 865.836060,254.702774 861.735535,249.858307 
	C855.547119,242.547104 847.917908,236.455444 840.732605,229.270554 
	C840.607788,229.114655 840.483032,228.958771 840.442810,228.731491 
	C840.442810,228.731491 840.431946,228.784470 839.458374,228.324463 
	C839.111450,228.232407 838.764526,228.140350 838.485779,227.563416 
	C837.990479,227.322342 837.495178,227.081268 836.612000,226.080002 
	C835.864380,225.715546 835.116699,225.351074 834.324707,224.427292 
	C832.948120,223.729675 831.571533,223.032059 829.969910,221.971771 
	C829.969910,221.971771 829.579590,221.799149 829.662903,221.543396 
	C829.583496,221.339569 829.438599,221.268616 829.041870,220.967773 
	C829.041870,220.967773 828.676086,220.787415 828.744507,220.525467 
	C828.608887,220.508667 828.473206,220.491852 827.695251,220.093704 
	C825.899170,218.796600 824.103027,217.499481 822.995422,215.595718 
	C824.109131,215.357208 825.246338,214.839050 826.332458,214.930054 
	C830.384827,215.269592 830.950256,212.990097 830.870789,209.681381 
	C830.788086,206.234863 830.095947,203.822586 825.883240,204.067963 
	C822.737732,204.251190 819.408264,203.554718 819.119934,208.399048 
	C819.023010,210.027527 817.773987,211.587433 816.478516,212.783768 
	C814.319336,211.781021 812.160156,210.778275 809.695374,209.175125 
	C799.914124,202.782928 788.624756,200.954193 777.491943,199.043289 
	C760.370239,196.104401 743.198486,196.429047 726.066467,199.597260 
	C711.065369,202.371399 696.907471,207.607040 683.496399,214.617249 
	C668.751709,222.324585 655.661743,232.503128 643.632080,244.003021 
	C641.282776,246.248825 639.307251,246.155182 636.791443,243.985031 
	C630.566895,238.615829 624.443542,233.024994 617.667419,228.424835 
	C608.099243,221.929199 598.078796,216.073120 588.040039,210.312500 
	C584.682373,208.385773 580.675781,207.589966 576.318420,205.925003 
	C565.163940,200.949066 553.428284,197.954590 541.282410,197.765030 
	C527.701660,197.553070 513.844116,196.841095 500.570557,199.086731 
	C475.023315,203.408844 451.411652,213.232040 432.483856,231.687363 
	C424.603577,239.370926 417.883820,248.244705 410.056213,256.914124 
	C407.105560,262.303345 404.154907,267.692566 400.882111,273.719940 
	C398.092987,281.312195 394.761475,288.754639 392.615875,296.524597 
	C386.034912,320.356812 385.521790,344.270721 392.838440,368.657166 
	C393.701080,372.024719 394.265289,375.503571 395.472839,378.742523 
	C406.770905,409.047180 425.222412,434.896973 447.230591,458.048462 
	C464.185669,475.884308 482.267090,492.729797 500.688324,509.067871 
	C517.555298,524.027527 535.548706,537.717163 553.017456,551.985718 
	C553.017456,551.985718 553.020203,551.957397 553.353210,552.535095 
	C555.883789,554.388184 558.414429,556.241211 560.990662,558.034668 
	C560.990662,558.034668 560.915894,558.027710 560.941345,558.686035 
	C562.323059,559.754333 563.704834,560.822693 565.382446,562.488220 
	C569.225098,565.871155 573.155640,569.160034 576.893616,572.654907 
	C587.335999,582.418030 597.698669,592.266418 608.200256,602.742737 
	C618.813660,616.893616 629.427124,631.044556 640.036438,645.189941 
	C640.299866,644.733032 640.800720,643.890869 641.276550,643.034851 
	C650.620911,626.223938 662.036682,610.941528 675.342468,597.074341 
	C699.819214,571.564819 727.526184,549.772766 755.065796,527.777893 
	C765.557983,519.398193 775.745728,510.637268 786.022034,502.004272 
	C786.022034,502.004272 786.004822,502.069916 786.672791,501.989227 
	C786.970459,501.665802 787.268127,501.342407 788.200989,500.958160 
	C814.940186,478.698669 840.480286,455.277832 860.850342,426.050110 
	C861.028687,425.705566 861.207031,425.361023 861.886047,424.617218 
	C867.527649,415.076172 873.694580,405.800781 878.684875,395.930450 
	C885.752319,381.951508 890.113525,366.920807 891.835876,351.357056 
	C892.752319,343.075775 892.091187,334.619904 892.194153,325.715210 
	C892.185730,325.538666 892.177307,325.362152 892.484375,324.780365 
	C892.351379,324.172852 892.218323,323.565369 892.079102,322.070648 
	C890.504944,313.800537 889.521423,305.357361 887.166016,297.316101 
	C885.347412,291.107544 881.808044,285.403015 879.103027,279.420990 
	C879.103027,279.420990 879.070923,279.339539 878.902832,278.719147 
	C878.259338,278.798798 877.615784,278.878418 876.429382,279.414001 
	C874.973145,283.297028 873.694275,287.257812 872.031372,291.050201 
	C862.622559,312.508118 848.392212,330.109955 829.431030,343.878510 
	C825.302917,346.876129 821.152832,349.843536 816.286011,353.017853 
	C815.507507,353.305420 814.677368,353.499084 813.957886,353.894226 
	C791.965637,365.972748 768.207336,372.279724 743.096191,375.648010 
	C742.987183,377.925232 742.869690,380.378784 742.289307,382.189362 
	C741.732117,375.036530 743.061584,367.589783 739.648254,361.068420 
	C740.672668,361.760712 741.697083,362.452972 742.721497,363.145264 
	C743.009521,362.837006 743.297485,362.528748 743.585510,362.220490 
	C742.194702,360.479828 740.803894,358.739166 738.703552,356.110474 
	C738.321960,358.271393 738.168030,359.143066 737.250671,359.884033 
	C734.626282,359.040253 732.018982,357.531616 729.374634,357.463745 
	C715.277954,357.101990 701.171997,357.099304 687.069275,356.976685 
	C685.429871,356.962433 683.790222,356.974762 682.150696,356.974762 
	C682.162720,356.629547 682.174744,356.284302 682.186768,355.939087 
	C699.114197,355.939087 716.041565,355.939087 732.968994,355.939087 
	C732.366272,355.240662 731.740479,355.053925 731.114563,355.053436 
	C716.069641,355.041351 701.023865,354.957092 685.980164,355.093811 
	C678.848694,355.158569 677.930298,354.474396 677.931824,347.277802 
	C677.934937,332.614594 677.958008,317.951385 677.958069,303.288177 
	C677.958069,295.333588 674.065857,291.149506 666.313538,291.081207 
	C657.820557,291.006378 649.325623,291.158569 639.918884,291.139771 
	C631.940613,291.101501 623.960876,290.948212 615.984558,291.055298 
	C606.833435,291.178101 603.140808,295.090973 603.137268,304.293671 
	C603.131531,319.253632 603.043091,334.214386 603.180298,349.173065 
	C603.219421,353.446564 601.582214,355.158112 597.305847,355.125763 
	C584.840393,355.031403 572.373047,355.127045 559.907043,355.230103 
	C557.963013,355.246124 556.022461,355.690491 553.177673,355.691986 
	C551.368225,355.655975 549.557861,355.563049 547.749573,355.594421 
	C541.862183,355.696472 536.807617,358.688477 535.998474,363.395355 
	C535.345764,367.192749 535.839600,371.187225 535.505981,375.967468 
	C535.640991,387.783539 535.775940,399.599579 535.674866,411.791168 
	C535.814148,412.335114 535.953430,412.879089 536.306396,414.376617 
	C536.491150,414.644867 536.675964,414.913116 536.707825,415.680267 
	C537.480713,416.510742 538.253662,417.341217 539.365356,418.704987 
	C539.531494,418.834381 539.697632,418.963776 539.753174,419.074463 
	C539.753174,419.074463 539.731567,419.063232 540.473145,419.585846 
	C541.871216,420.078766 543.269287,420.571686 545.175354,421.523102 
	C563.637268,421.601349 582.099182,421.679626 601.400269,421.966064 
	C602.169739,423.116394 602.939148,424.266724 603.373047,426.095978 
	C603.472473,427.845764 603.571899,429.595581 603.432068,432.336304 
	C603.584106,440.561096 603.736084,448.785919 603.568604,457.898682 
	C603.614807,462.355988 603.661011,466.813324 603.374084,471.940857 
	C604.451355,474.992462 605.528564,478.044067 606.796692,481.224518 
	C606.796692,481.224518 607.009277,481.312897 607.160156,481.800781 
	C607.840149,482.275879 608.520142,482.750977 609.978088,483.826538 
	C610.278320,483.957642 610.578491,484.088745 611.188965,484.569031 
	C612.026306,484.704254 612.863586,484.839478 614.667480,485.114075 
	C626.814514,485.120911 638.961731,485.168091 651.108215,485.089874 
	C652.874878,485.078522 655.093140,485.032684 656.326538,484.039368 
	C663.121582,478.566803 669.675537,472.794952 677.003662,466.781921 
	C677.322449,464.875061 677.901489,462.970306 677.917114,461.060944 
	C678.007629,449.990234 677.808167,438.914154 678.109985,427.850891 
	C678.165955,425.798676 680.061584,423.796631 682.014343,421.887421 
	C699.242126,421.826477 716.469971,421.765564 734.318665,421.995422 
	C740.079529,422.101135 744.478210,416.971710 744.849121,409.763672 
	C745.087036,405.139191 745.374817,400.517303 746.225952,395.338531 
	C779.697144,387.526794 810.581421,374.332520 837.606018,351.657745 
	C845.623657,343.971954 853.641357,336.286163 861.658997,328.600372 
	C861.708313,331.428497 861.408203,334.300415 860.082397,336.574341 
	C855.884460,343.773865 852.014587,351.346985 846.704956,357.673798 
	C838.528259,367.416718 829.694153,376.716675 820.317932,385.308655 
	C813.213684,391.818573 804.869690,396.987671 797.002747,402.649628 
	C789.922302,407.745544 782.931885,413.006714 775.547241,417.628357 
	C768.589844,421.982605 761.102051,425.479279 753.969177,429.565552 
	C743.719421,435.437531 733.530396,441.419800 723.409546,447.511383 
	C715.850037,452.061401 708.439270,456.858551 700.248474,461.830566 
	C695.829407,464.881439 691.401428,467.919434 686.993042,470.985718 
	C674.515076,479.664886 661.883301,488.136353 649.658142,497.158447 
	C645.270996,500.396118 641.871765,504.972351 637.951843,508.936096 
	C637.951843,508.936096 637.925537,509.000916 637.203735,508.936371 
	C636.211609,510.168518 635.219482,511.400665 633.601440,512.820862 
	C632.148865,513.864807 630.478333,514.705017 629.280151,515.986755 
	C622.939026,522.770203 616.716675,529.664673 610.314270,536.672729 
	C609.311584,536.057922 608.295044,535.521973 607.372620,534.855713 
	C594.404968,525.489746 581.407349,516.164246 568.501770,506.713318 
	C547.031677,490.990448 525.461609,475.403564 506.284332,456.797485 
	C492.454651,443.379761 479.285126,429.450012 469.154694,412.928162 
	C465.103943,406.321655 461.120056,399.674072 457.004303,392.364594 
	C456.347260,391.213898 455.690216,390.063202 455.013275,388.989014 
	C455.013275,388.989014 455.090942,389.003754 455.088715,388.291443 
	C454.388062,386.854126 453.687378,385.416809 452.985107,384.006561 
	C452.985107,384.006561 453.007812,384.021484 453.000793,383.406555 
	C452.665283,382.922729 452.329803,382.438904 451.978638,382.004730 
	C451.978638,382.004730 452.027863,382.021576 451.994141,381.394226 
M892.557678,241.094604 
	C891.536133,239.876053 890.555298,237.644455 889.486511,237.601471 
	C881.896790,237.296295 874.289062,237.438950 866.395935,237.438950 
	C866.395935,246.101425 866.395935,254.098312 866.395935,262.692932 
	C873.948181,262.692932 881.063965,262.571320 888.172607,262.743927 
	C891.763550,262.831055 892.773987,261.237244 892.661194,257.934967 
	C892.479858,252.624466 892.580200,247.304352 892.557678,241.094604 
M911.050781,207.681549 
	C911.630005,203.701843 910.268921,201.888916 905.908875,202.207626 
	C901.105591,202.558731 896.247253,202.476776 891.430969,202.230301 
	C887.355957,202.021759 886.093994,203.931519 886.289429,207.613037 
	C886.553955,212.593140 886.823792,217.577499 886.878235,222.562363 
	C886.906250,225.131317 887.867188,226.115402 890.438660,226.062302 
	C896.097839,225.945450 901.762695,225.934464 907.421692,226.052719 
	C910.310059,226.113083 911.181396,224.820862 911.100220,222.122391 
	C910.965088,217.630524 911.058228,213.131760 911.050781,207.681549 
M868.770874,213.378403 
	C868.770020,212.217224 868.764893,211.056015 868.768982,209.894852 
	C868.807312,199.101898 868.807739,199.101898 857.948608,199.110153 
	C846.900146,199.118561 846.901855,199.118866 845.022339,209.954666 
	C844.769409,211.413025 844.287354,212.862228 844.256775,214.322891 
	C844.161743,218.858215 846.168457,220.852051 850.718445,220.899872 
	C854.533386,220.939987 858.349060,220.928604 862.164307,220.915237 
	C868.715393,220.892303 868.715393,220.884216 868.770874,213.378403 
M816.615601,314.440643 
	C816.615295,311.445038 816.823669,308.427155 816.507812,305.465179 
	C816.388123,304.342285 815.093628,302.465637 814.277832,302.434814 
	C807.690308,302.186066 801.089233,302.295349 794.136047,302.295349 
	C794.136047,305.258270 794.080811,307.404755 794.147583,309.547455 
	C794.286560,314.009735 792.796326,320.347473 795.112671,322.437195 
	C797.773132,324.837463 803.826477,323.654755 808.409790,323.709442 
	C818.536072,323.830322 816.455872,323.846741 816.615601,314.440643 
M785.774292,265.042236 
	C784.572083,265.819336 782.428406,266.495972 782.332947,267.391144 
	C781.948730,270.992432 781.205078,275.045593 782.433716,278.219727 
	C784.546326,283.677460 789.967041,279.985687 793.843811,280.697845 
	C795.307983,280.966766 798.491943,279.241821 798.607117,278.178375 
	C799.045105,274.133881 799.402832,269.646912 797.965881,266.055359 
	C797.422058,264.696075 791.932861,265.306305 788.696045,265.040924 
	C788.037415,264.986938 787.370544,265.032501 785.774292,265.042236 
M783.810059,334.627380 
	C783.432373,332.600677 785.035522,329.457123 781.273804,329.253540 
	C777.057068,329.025299 772.818420,329.201080 768.510315,329.201080 
	C768.386108,331.391418 768.268066,332.704437 768.243958,334.019196 
	C768.046631,344.766266 768.821045,345.445007 779.547852,344.672058 
	C782.590637,344.452850 784.165833,343.233459 783.881958,340.027344 
	C783.750549,338.543030 783.793274,337.043335 783.810059,334.627380 
M748.389526,316.029816 
	C748.391541,317.183533 748.062500,318.475800 748.473694,319.458221 
	C749.079712,320.905731 750.061096,323.080536 751.153625,323.255768 
	C753.426514,323.620239 757.745911,323.297272 757.922913,322.512329 
	C758.597290,319.521942 758.691284,315.944763 757.582031,313.150543 
	C756.674744,310.865143 750.603455,312.420929 748.389526,316.029816 
M777.497986,295.211212 
	C774.689209,295.163452 770.549194,293.982330 769.392334,295.341095 
	C767.770508,297.246002 768.368469,301.040863 768.029175,303.923370 
	C777.631836,305.903442 778.227356,305.435089 777.903137,297.005157 
	C777.890442,296.675446 777.819763,296.347961 777.497986,295.211212 
M735.806946,356.278137 
	C735.866333,356.450714 735.925781,356.623291 735.985229,356.795868 
	C736.043335,356.623932 736.101440,356.451965 735.806946,356.278137 
z"/>
<path fill="#66DB7B" opacity="1.000000" stroke="none" 
	d="
M860.398499,426.412231 
	C840.480286,455.277832 814.940186,478.698669 787.563110,501.074768 
	C786.618469,501.484192 786.311646,501.777039 786.004822,502.069885 
	C786.004822,502.069916 786.022034,502.004272 785.738892,502.003082 
	C784.114685,500.547668 782.773621,499.093475 781.160767,497.344574 
	C784.245544,494.919800 787.437561,492.582550 790.428162,490.011078 
	C793.358643,487.491333 796.084106,484.733093 798.899536,482.079529 
	C798.639526,481.804199 798.379456,481.528839 798.119385,481.253510 
	C796.602844,481.772522 795.086304,482.291534 793.569702,482.810547 
	C793.669739,482.390015 793.769775,481.969513 793.869812,481.548981 
	C791.013794,480.400299 788.056152,478.129669 785.326416,478.376770 
	C781.615845,478.712708 778.534973,479.377777 776.053833,475.850708 
	C775.721985,475.379120 774.181824,475.321472 773.451172,475.641937 
	C770.282043,477.031952 766.898865,478.215424 764.150269,480.232574 
	C754.169556,487.557312 744.312500,495.060242 734.600281,502.738190 
	C725.266968,510.116638 716.171143,517.795532 706.973022,524.989380 
	C707.363831,523.323364 707.924194,522.033630 708.106140,520.692566 
	C708.500305,517.786011 709.722046,514.452026 708.765137,512.015747 
	C706.850281,507.140625 703.705261,502.747589 701.052124,498.164795 
	C700.654175,497.477478 699.882263,496.885193 699.770630,496.172607 
	C698.723450,489.489655 697.782349,482.790100 697.054077,475.833496 
	C700.945557,473.063934 704.593506,470.556183 708.526489,467.869080 
	C720.137451,460.994537 731.463318,454.299347 741.674988,448.262817 
	C746.389526,452.761505 750.186340,456.384460 753.911621,459.939240 
	C760.751648,455.346344 766.931396,450.861755 773.445190,446.930420 
	C778.536133,443.857758 781.607605,445.746857 781.440186,451.266479 
	C783.213257,451.972290 784.992920,452.680695 786.755737,453.382416 
	C785.630310,456.660614 784.658813,459.490326 783.522705,462.799561 
	C784.402405,462.295410 784.991699,462.085144 785.416626,461.695557 
	C796.402344,451.624420 807.526123,441.696228 818.275024,431.377686 
	C823.398254,426.459656 828.321045,421.160339 832.414917,415.382111 
	C838.917480,406.204102 844.832886,396.591248 850.664978,386.961426 
	C859.685669,372.066650 865.363037,356.006805 868.190125,338.716522 
	C870.094360,327.070312 867.468079,314.996368 872.288940,303.883789 
	C878.189087,308.834930 885.581604,312.144745 886.155762,321.364746 
	C886.399902,326.739868 887.011719,331.690338 886.846191,336.614655 
	C886.675232,341.703583 885.451111,346.752960 885.208679,351.844452 
	C884.463928,367.483917 878.102234,381.445190 872.165955,395.461395 
	C868.017700,405.255981 861.455322,414.039459 860.018188,424.980316 
	C860.002136,424.997925 859.970154,425.033081 859.793823,425.079865 
	C859.538086,425.215637 859.382690,425.375061 859.390259,425.383240 
	C859.540161,425.544586 859.708801,425.688354 860.001709,425.982727 
	C860.129761,426.129730 860.398499,426.412231 860.398499,426.412231 
z"/>
<path fill="#1365A4" opacity="1.000000" stroke="none" 
	d="
M553.045776,551.966370 
	C535.548706,537.717163 517.555298,524.027527 500.688324,509.067871 
	C482.267090,492.729797 464.185669,475.884308 447.230591,458.048462 
	C425.222412,434.896973 406.770905,409.047180 395.472839,378.742523 
	C394.265289,375.503571 393.701080,372.024719 393.338440,368.257019 
	C394.229370,366.515228 394.792786,365.197418 394.982025,363.827942 
	C395.910339,357.109192 396.739166,350.376709 397.603149,343.649078 
	C398.056183,343.659271 398.509247,343.669464 398.962280,343.679657 
	C398.962280,348.927948 398.962280,354.176239 398.962280,359.874908 
	C401.830566,358.296600 403.809021,357.207916 405.718628,356.157135 
	C407.509033,357.818390 408.957703,360.338684 410.634613,360.500977 
	C415.947632,361.015228 415.773773,365.084900 417.011566,368.517303 
	C420.900787,379.302032 424.860260,390.064362 429.054810,400.732300 
	C429.599579,402.117798 431.711884,403.849854 433.045990,403.806793 
	C442.162140,403.512543 444.729187,411.612213 450.340424,415.926239 
	C451.244202,415.421875 452.730560,414.592407 454.673767,413.507996 
	C444.162872,387.694702 436.565125,360.742920 440.876007,331.431885 
	C443.039459,323.720795 444.362396,316.039703 447.453156,309.151886 
	C451.848694,299.356384 457.543427,290.143890 462.814026,280.466064 
	C463.266571,279.866882 463.588196,279.483978 464.184723,278.959015 
	C464.667114,278.465759 464.874603,278.114563 465.288422,277.611450 
	C465.680237,276.981964 465.865723,276.504364 466.030060,276.010223 
	C466.008911,275.993683 466.029083,276.043152 466.263245,275.956970 
	C466.762360,275.651611 466.942047,275.376678 467.025757,275.024414 
	C467.015106,275.002808 467.056335,275.028290 467.324768,274.836731 
	C472.410522,269.443146 477.227844,264.241119 482.042999,259.064514 
	C482.040833,259.089935 482.081512,259.121582 482.423370,259.082733 
	C483.667236,258.320984 484.574432,257.604492 485.470490,256.874237 
	C501.574860,243.749374 519.565979,234.555984 540.470337,230.565674 
	C554.209045,227.586090 567.602295,227.868439 580.955078,230.407730 
	C591.393372,232.392776 601.696594,234.902466 611.175293,240.733215 
	C611.732361,240.756149 611.955627,240.749313 612.477295,240.874771 
	C613.166931,241.199417 613.558167,241.391754 614.200317,241.803741 
	C617.904724,244.319168 621.358093,246.614929 624.811523,248.910706 
	C602.845154,240.575439 580.172241,237.266403 556.825439,240.198090 
	C531.489380,243.379593 508.648621,252.816589 489.150330,269.485382 
	C473.542175,282.828552 460.945374,298.540466 453.094238,317.780304 
	C444.731232,338.274567 443.006012,358.911896 450.847015,380.526184 
	C451.155182,384.995514 451.264832,388.989166 452.435669,392.642700 
	C462.663544,424.557373 478.698547,453.431732 498.696259,480.208740 
	C509.518463,494.699677 520.708496,508.746796 534.230164,521.003784 
	C543.142761,529.082703 550.707703,538.607971 561.129517,545.078918 
	C563.184692,546.354980 564.392639,548.995483 565.995667,551.003357 
	C566.000000,551.000000 566.005920,550.991882 565.661621,550.946899 
	C561.459656,549.033081 557.602051,547.164246 553.432312,545.144165 
	C553.294678,547.572998 553.170166,549.769653 553.045776,551.966370 
M455.584412,416.515442 
	C455.584412,416.515442 455.461273,416.595123 455.584412,416.515442 
z"/>
<path fill="#0B8CDC" opacity="1.000000" stroke="none" 
	d="
M565.991333,551.006714 
	C564.392639,548.995483 563.184692,546.354980 561.129517,545.078918 
	C550.707703,538.607971 543.142761,529.082703 534.230164,521.003784 
	C520.708496,508.746796 509.518463,494.699677 498.696259,480.208740 
	C478.698547,453.431732 462.663544,424.557373 452.435669,392.642700 
	C451.264832,388.989166 451.155182,384.995514 450.890411,380.905029 
	C451.227325,380.650452 451.189026,380.759521 451.197937,381.041534 
	C451.480530,381.556213 451.754211,381.788910 452.027863,382.021576 
	C452.027863,382.021576 451.978638,382.004730 452.009155,382.289642 
	C452.362396,383.056854 452.685089,383.539185 453.007812,384.021484 
	C453.007812,384.021484 452.985107,384.006561 452.991638,384.355286 
	C453.695740,386.137268 454.393341,387.570496 455.090942,389.003754 
	C455.090942,389.003754 455.013275,388.989014 455.048218,389.289825 
	C455.393585,390.644440 455.704041,391.698242 456.014282,393.148132 
	C456.664001,395.412659 456.981537,397.493011 458.016418,399.116028 
	C466.371674,412.219788 474.065186,425.849762 483.504211,438.132935 
	C496.485809,455.026062 512.406494,469.223450 529.250916,482.297974 
	C537.548584,488.738586 545.720032,495.349762 554.165527,501.590179 
	C565.278625,509.801636 576.618286,517.706177 587.829834,525.785217 
	C590.168579,527.470459 592.241882,529.550049 594.668823,531.081360 
	C599.029419,533.832764 603.565308,536.306519 608.032654,539.181152 
	C608.036438,539.656067 608.035461,539.846008 608.016602,540.019165 
	C607.998657,540.002380 608.045410,540.016418 607.789429,540.174927 
	C607.359680,540.893066 607.185852,541.452698 606.661621,542.041748 
	C602.848389,545.420776 599.215454,548.666321 598.704956,554.040283 
	C592.951233,556.764221 592.562622,565.736816 584.550293,565.254578 
	C586.983765,566.817383 589.417297,568.380188 592.437073,570.319519 
	C594.758118,564.539978 596.875488,559.267456 599.296387,553.846558 
	C602.062744,549.795044 604.525452,545.891907 607.262268,541.976807 
	C607.719055,541.957214 607.901733,541.949524 608.464233,541.952515 
	C610.733337,542.000488 613.230774,541.278076 614.400513,542.214355 
	C618.259277,545.302917 620.480225,542.936096 622.783752,540.407654 
	C628.077576,534.597046 633.302612,528.723755 637.739319,523.784546 
	C641.168152,525.943787 644.281982,527.144470 646.253601,529.361084 
	C648.206604,531.556641 649.007812,534.776733 650.971741,538.942078 
	C654.909668,533.618103 658.622803,528.598083 662.335938,523.578064 
	C665.679688,526.912048 667.557739,528.054932 668.916443,529.642212 
	C670.477112,531.465454 672.106873,533.533691 672.734802,535.768555 
	C673.409424,538.169189 673.382446,540.971313 672.893616,543.446472 
	C672.166138,547.129700 675.449585,551.421936 671.404114,554.508423 
	C668.463623,556.751953 664.410583,558.176208 666.627686,563.276062 
	C666.819641,563.717651 665.420410,564.739807 664.963135,565.600098 
	C664.217773,567.002625 663.639709,568.494141 662.991089,569.971375 
	C662.991150,569.994629 662.948425,570.013062 662.721924,570.156250 
	C662.328613,570.791809 662.161682,571.284241 661.949219,571.838379 
	C661.903748,571.900085 661.787781,572.000366 661.495239,572.050476 
	C660.799805,572.710266 660.396973,573.319946 659.950317,574.279968 
	C657.338257,578.351807 654.770020,582.073364 652.079834,585.971497 
	C652.419739,581.120605 653.322388,576.781189 652.821228,572.610352 
	C652.439880,569.436462 650.972534,565.657715 648.669434,563.698181 
	C647.022766,562.297180 641.365784,562.398560 640.631042,563.657715 
	C635.843506,571.862549 626.486511,577.408264 626.001648,588.160217 
	C625.954712,589.201538 624.757996,590.146667 624.509521,591.231384 
	C623.620056,595.114136 621.458191,595.185974 618.215393,593.964844 
	C614.430969,592.539795 610.457336,591.617432 606.508850,590.460327 
	C606.928894,595.424377 616.650146,595.228455 612.949280,602.081116 
	C611.037659,602.081116 609.565247,602.081116 608.092834,602.081116 
	C597.698669,592.266418 587.335999,582.418030 576.893616,572.654907 
	C573.155640,569.160034 569.225098,565.871155 565.181641,561.854370 
	C563.625793,560.156250 562.270813,559.091980 560.915894,558.027710 
	C560.915894,558.027710 560.990662,558.034668 560.970154,557.708679 
	C558.306519,555.574280 555.663330,553.765808 553.020203,551.957397 
	C553.020203,551.957397 553.017456,551.985718 553.031616,551.976074 
	C553.170166,549.769653 553.294678,547.572998 553.432312,545.144165 
	C557.602051,547.164246 561.459656,549.033081 565.718140,551.086304 
	C566.206665,551.318726 566.294250,551.366638 566.381836,551.414490 
	C566.251648,551.278564 566.121521,551.142639 565.991333,551.006714 
M659.481018,570.594971 
	C659.481018,570.594971 659.414795,570.482666 659.481018,570.594971 
z"/>
<path fill="#1365A4" opacity="1.000000" stroke="none" 
	d="
M608.146545,602.411926 
	C609.565247,602.081116 611.037659,602.081116 612.949280,602.081116 
	C616.650146,595.228455 606.928894,595.424377 606.508850,590.460327 
	C610.457336,591.617432 614.430969,592.539795 618.215393,593.964844 
	C621.458191,595.185974 623.620056,595.114136 624.509521,591.231384 
	C624.757996,590.146667 625.954712,589.201538 626.001648,588.160217 
	C626.486511,577.408264 635.843506,571.862549 640.631042,563.657715 
	C641.365784,562.398560 647.022766,562.297180 648.669434,563.698181 
	C650.972534,565.657715 652.439880,569.436462 652.821228,572.610352 
	C653.322388,576.781189 652.419739,581.120605 652.079834,585.971497 
	C654.770020,582.073364 657.338257,578.351807 660.206055,574.178101 
	C660.932922,573.150635 661.360352,572.575500 661.787781,572.000366 
	C661.787781,572.000366 661.903748,571.900085 662.191162,571.719482 
	C662.635254,571.030212 662.791809,570.521667 662.948425,570.013062 
	C662.948425,570.013062 662.991150,569.994629 663.297302,569.844543 
	C665.469604,567.604187 667.300537,565.481201 669.208435,563.429688 
	C675.354492,556.820984 681.382690,550.093567 687.733948,543.687073 
	C693.969666,537.397095 700.544739,531.443542 706.970947,525.342407 
	C716.171143,517.795532 725.266968,510.116638 734.600281,502.738190 
	C744.312500,495.060242 754.169556,487.557312 764.150269,480.232574 
	C766.898865,478.215424 770.282043,477.031952 773.451172,475.641937 
	C774.181824,475.321472 775.721985,475.379120 776.053833,475.850708 
	C778.534973,479.377777 781.615845,478.712708 785.326416,478.376770 
	C788.056152,478.129669 791.013794,480.400299 793.869812,481.548981 
	C793.769775,481.969513 793.669739,482.390015 793.569702,482.810547 
	C795.086304,482.291534 796.602844,481.772522 798.119385,481.253510 
	C798.379456,481.528839 798.639526,481.804199 798.899536,482.079529 
	C796.084106,484.733093 793.358643,487.491333 790.428162,490.011078 
	C787.437561,492.582550 784.245544,494.919800 781.160767,497.344574 
	C782.773621,499.093475 784.114685,500.547668 785.763977,502.025970 
	C775.745728,510.637268 765.557983,519.398193 755.065796,527.777893 
	C727.526184,549.772766 699.819214,571.564819 675.342468,597.074341 
	C662.036682,610.941528 650.620911,626.223938 641.276550,643.034851 
	C640.800720,643.890869 640.299866,644.733032 640.036438,645.189941 
	C629.427124,631.044556 618.813660,616.893616 608.146545,602.411926 
z"/>
<path fill="#63EFDC" opacity="1.000000" stroke="none" 
	d="
M681.108154,421.771423 
	C680.061584,423.796631 678.165955,425.798676 678.109985,427.850891 
	C677.808167,438.914154 678.007629,449.990234 677.917114,461.060944 
	C677.901489,462.970306 677.322449,464.875061 676.547852,466.488159 
	C676.038208,458.567230 676.000000,450.939819 675.913513,443.312988 
	C675.900635,442.180359 675.812256,440.111115 675.502258,440.060974 
	C671.368103,439.392273 673.328735,436.225159 673.049866,434.147400 
	C672.756348,431.960236 672.984070,429.703125 672.984070,427.140930 
	C660.878113,429.831360 649.604736,432.340515 639.175659,426.174927 
	C638.019104,428.710938 637.096375,430.734283 636.170715,432.413940 
	C636.183167,431.383545 636.198547,430.696777 636.479187,429.739655 
	C636.508301,422.225952 636.401733,414.975342 635.995605,407.741577 
	C635.660950,401.781281 633.414185,396.958008 627.359680,394.529510 
	C625.592712,393.820740 624.046936,392.378937 622.618713,391.039642 
	C617.241577,385.997192 610.914185,383.362793 603.566956,382.959137 
	C602.026917,382.874481 600.517822,382.225769 599.462891,381.875916 
	C608.371765,381.651093 616.810669,381.299652 625.253235,381.145477 
	C636.111755,380.947144 636.113586,381.015289 635.840820,370.034698 
	C635.832642,369.703857 635.781982,369.374054 635.830200,368.579254 
	C635.916321,364.284851 635.849487,360.453064 635.949890,356.625610 
	C636.062683,352.326569 635.242920,348.618011 632.018860,345.280853 
	C629.069641,342.228241 626.490662,338.617828 624.540161,334.844055 
	C620.978699,327.953400 618.033325,320.745972 614.765381,313.701050 
	C613.556580,311.095123 612.774353,307.861633 608.665100,308.338470 
	C607.774719,315.071808 606.529968,321.634888 606.132080,328.248932 
	C605.682739,335.717651 606.072693,343.233521 605.947632,350.726349 
	C605.866394,355.590424 603.702576,357.885803 598.959595,357.914276 
	C583.353394,358.007996 567.746277,357.949554 551.817017,357.949554 
	C552.802063,357.073486 553.441223,356.505127 554.080322,355.936768 
	C556.022461,355.690491 557.963013,355.246124 559.907043,355.230103 
	C572.373047,355.127045 584.840393,355.031403 597.305847,355.125763 
	C601.582214,355.158112 603.219421,353.446564 603.180298,349.173065 
	C603.043091,334.214386 603.131531,319.253632 603.137268,304.293671 
	C603.140808,295.090973 606.833435,291.178101 615.984558,291.055298 
	C623.960876,290.948212 631.940613,291.101501 640.394165,291.529236 
	C641.853638,293.050446 642.837769,294.182159 643.798096,295.286438 
	C640.333191,297.187286 639.834534,303.083954 642.523621,307.974457 
	C644.587097,311.727295 646.069397,315.796265 648.061279,319.592865 
	C650.497375,324.236145 653.122437,328.785583 655.812683,333.287842 
	C657.078857,335.406952 658.927856,337.192017 660.092041,339.354950 
	C662.526733,343.878571 664.987305,348.001190 672.126770,344.435822 
	C670.788879,352.984283 673.259399,358.883484 679.609497,363.552917 
	C681.553467,364.982391 681.543945,369.068451 682.475159,372.087555 
	C676.838013,376.896057 676.176758,380.962891 680.045593,388.217957 
	C680.432678,388.943787 680.637329,389.764435 680.984619,390.514252 
	C684.816406,398.786652 689.020142,406.513184 699.760437,407.172485 
	C702.780396,407.357880 705.450806,408.620575 705.226318,412.814453 
	C705.156982,414.109283 707.040405,415.593719 708.194885,416.838074 
	C708.923340,417.623047 709.957947,418.123932 711.313049,419.072876 
	C708.541870,419.937439 706.718933,420.506134 704.438232,421.068237 
	C696.356323,421.298248 688.732239,421.534851 681.108154,421.771423 
z"/>
<path fill="#B8FDA8" opacity="1.000000" stroke="none" 
	d="
M871.980164,303.694061 
	C867.468079,314.996368 870.094360,327.070312 868.190125,338.716522 
	C865.363037,356.006805 859.685669,372.066650 850.664978,386.961426 
	C844.832886,396.591248 838.917480,406.204102 832.414917,415.382111 
	C828.321045,421.160339 823.398254,426.459656 818.275024,431.377686 
	C807.526123,441.696228 796.402344,451.624420 785.416626,461.695557 
	C784.991699,462.085144 784.402405,462.295410 783.522705,462.799561 
	C784.658813,459.490326 785.630310,456.660614 786.755737,453.382416 
	C784.992920,452.680695 783.213257,451.972290 781.440186,451.266479 
	C781.607605,445.746857 778.536133,443.857758 773.445190,446.930420 
	C766.931396,450.861755 760.751648,455.346344 753.911621,459.939240 
	C750.186340,456.384460 746.389526,452.761505 741.674988,448.262817 
	C731.463318,454.299347 720.137451,460.994537 708.448792,467.444824 
	C707.985596,465.313171 707.885193,463.426422 707.773743,461.331360 
	C705.256531,461.947662 703.125061,462.469513 700.996765,462.995697 
	C701.000000,463.000000 701.007935,463.005981 700.999756,462.640808 
	C700.981812,462.032288 700.972046,461.789001 700.962280,461.545715 
	C708.439270,456.858551 715.850037,452.061401 723.409546,447.511383 
	C733.530396,441.419800 743.719421,435.437531 753.969177,429.565552 
	C761.102051,425.479279 768.589844,421.982605 775.547241,417.628357 
	C782.931885,413.006714 789.922302,407.745544 797.002747,402.649628 
	C804.869690,396.987671 813.213684,391.818573 820.317932,385.308655 
	C829.694153,376.716675 838.528259,367.416718 846.704956,357.673798 
	C852.014587,351.346985 855.884460,343.773865 860.082397,336.574341 
	C861.408203,334.300415 861.708313,331.428497 861.658997,328.600372 
	C853.641357,336.286163 845.623657,343.971954 837.201416,351.367920 
	C835.092834,350.477875 833.183716,349.059845 831.722229,349.426483 
	C826.780273,350.666229 821.997070,352.538696 817.085754,354.098694 
	C817.018311,354.028107 816.875305,353.894928 816.893311,353.625305 
	C816.945068,353.178711 816.978943,353.001770 817.012878,352.824829 
	C821.152832,349.843536 825.302917,346.876129 829.431030,343.878510 
	C848.392212,330.109955 862.622559,312.508118 872.031372,291.050201 
	C873.694275,287.257812 874.973145,283.297028 877.058167,279.205566 
	C878.148254,279.111237 878.609619,279.225372 879.070923,279.339539 
	C879.070923,279.339539 879.103027,279.420990 878.949646,279.829620 
	C876.524231,288.056854 874.252197,295.875458 871.980164,303.694061 
z"/>
<path fill="#B8FDA8" opacity="1.000000" stroke="none" 
	d="
M625.154907,249.029358 
	C621.358093,246.614929 617.904724,244.319168 614.155518,241.506744 
	C613.299438,240.907547 612.739136,240.824997 612.178894,240.742462 
	C611.955627,240.749313 611.732361,240.756149 611.211243,240.373764 
	C608.583435,238.252670 606.443604,236.127930 603.876587,234.886063 
	C600.489380,233.247452 597.649414,231.401718 595.712585,227.448441 
	C599.221436,227.131088 601.877075,226.890900 605.327393,226.578842 
	C604.187622,225.634735 603.882446,225.264572 603.490051,225.074127 
	C594.317688,220.622253 585.135864,216.189804 576.109070,211.480774 
	C576.496826,209.564255 576.731323,207.920731 576.965820,206.277222 
	C580.675781,207.589966 584.682373,208.385773 588.040039,210.312500 
	C598.078796,216.073120 608.099243,221.929199 617.667419,228.424835 
	C624.443542,233.024994 630.566895,238.615829 636.791443,243.985031 
	C639.307251,246.155182 641.282776,246.248825 643.632080,244.003021 
	C655.661743,232.503128 668.751709,222.324585 683.496399,214.617249 
	C696.907471,207.607040 711.065369,202.371399 726.066467,199.597260 
	C743.198486,196.429047 760.370239,196.104401 777.491943,199.043289 
	C788.624756,200.954193 799.914124,202.782928 809.711670,209.797546 
	C804.230835,208.487427 803.541809,213.272583 801.821960,215.725464 
	C805.692078,218.693069 809.375122,221.697296 813.247375,224.433777 
	C816.820557,226.958954 818.637817,230.969254 816.989075,233.484039 
	C814.645752,237.058197 811.738037,237.077545 806.710571,234.503647 
	C800.017517,231.076996 793.231873,227.729263 786.207153,225.089676 
	C781.847412,223.451462 779.691956,225.323303 780.178589,230.095352 
	C780.472351,232.976135 782.393677,235.717880 783.708923,238.462051 
	C786.483154,244.250153 789.785828,249.493713 795.348938,253.275543 
	C797.837708,254.967407 799.241821,258.254791 801.138184,260.818115 
	C796.263062,257.925232 790.984314,255.539413 786.590332,252.042023 
	C774.614807,242.510071 761.414856,235.991425 746.342896,233.043671 
	C727.763794,229.410019 709.593872,230.689041 691.197083,235.025726 
	C676.620422,238.461884 664.151611,245.600189 651.612671,253.082687 
	C647.947937,255.269562 643.887878,256.885101 639.843872,258.285339 
	C638.746033,258.665466 636.878540,257.546509 635.653625,256.697906 
	C632.188232,254.297180 628.872742,251.679962 625.154907,249.029358 
M624.602295,235.629654 
	C622.085144,233.706650 619.567993,231.783646 617.050903,229.860626 
	C616.626343,230.541992 616.201843,231.223373 615.777344,231.904739 
	C618.725647,233.361740 621.674011,234.818756 624.602295,235.629654 
M612.478699,227.635193 
	C612.478699,227.635193 612.593567,227.426819 612.593567,227.426819 
	C612.593567,227.426819 612.355530,227.460419 612.478699,227.635193 
z"/>
<path fill="#21B8DB" opacity="1.000000" stroke="none" 
	d="
M553.629028,355.814362 
	C553.441223,356.505127 552.802063,357.073486 551.817017,357.949554 
	C567.746277,357.949554 583.353394,358.007996 598.959595,357.914276 
	C603.702576,357.885803 605.866394,355.590424 605.947632,350.726349 
	C606.072693,343.233521 605.682739,335.717651 606.132080,328.248932 
	C606.529968,321.634888 607.774719,315.071808 608.665100,308.338470 
	C612.774353,307.861633 613.556580,311.095123 614.765381,313.701050 
	C618.033325,320.745972 620.978699,327.953400 624.540161,334.844055 
	C626.490662,338.617828 629.069641,342.228241 632.018860,345.280853 
	C635.242920,348.618011 636.062683,352.326569 635.949890,356.625610 
	C635.849487,360.453064 635.916321,364.284851 635.615723,368.389893 
	C635.079651,368.442749 634.850281,368.202179 634.584839,368.012085 
	C634.524231,367.968658 634.230591,368.092499 634.226868,368.150909 
	C634.144287,369.451447 634.044067,370.753174 634.032471,372.055481 
	C633.964050,379.716644 633.712891,379.981079 625.787231,379.996490 
	C616.487549,380.014557 607.187805,379.989563 597.888245,380.018402 
	C596.424500,380.022949 594.961243,380.213074 593.497803,380.317383 
	C593.534851,380.574860 593.571899,380.832336 593.608948,381.089844 
	C595.404114,381.338867 597.199341,381.587921 598.994507,381.836975 
	C600.517822,382.225769 602.026917,382.874481 603.566956,382.959137 
	C610.914185,383.362793 617.241577,385.997192 622.618713,391.039642 
	C624.046936,392.378937 625.592712,393.820740 627.359680,394.529510 
	C633.414185,396.958008 635.660950,401.781281 635.995605,407.741577 
	C636.401733,414.975342 636.508301,422.225952 636.142761,429.996216 
	C634.998657,435.223541 634.456177,439.923920 633.880554,444.911896 
	C631.144165,444.609802 628.820618,443.680328 627.034912,444.300262 
	C623.618958,445.486084 622.370056,443.787933 620.600830,441.475067 
	C618.422607,438.627563 615.767761,436.080139 613.010498,433.771423 
	C611.889160,432.832489 609.637390,432.154968 608.491455,432.671295 
	C607.538635,433.100616 607.156616,435.428070 607.033936,436.955872 
	C606.570129,442.731079 606.402283,448.530731 605.895325,454.301147 
	C605.811523,455.255768 604.585999,456.110046 603.888123,457.010681 
	C603.736084,448.785919 603.584106,440.561096 603.773926,431.706299 
	C603.980042,429.189850 603.844360,427.303467 603.708618,425.417053 
	C602.939148,424.266724 602.169739,423.116394 600.736633,421.642090 
	C597.796875,421.101379 595.520447,420.696381 593.244629,420.699493 
	C581.565735,420.715485 569.886963,420.836487 558.254395,420.533844 
	C559.817200,419.784210 561.329651,419.128632 562.850952,419.107391 
	C571.341736,418.988800 579.835571,419.085846 588.326172,418.959229 
	C590.265137,418.930328 592.270447,418.534149 594.113220,417.914490 
	C597.488892,416.779327 598.019653,414.236938 594.982300,412.640747 
	C585.433472,407.622650 580.857178,398.117493 573.954895,390.709412 
	C565.782776,381.938477 556.565491,374.141327 547.666016,365.795258 
	C548.189453,365.114349 549.038879,364.009399 549.898865,362.890778 
	C545.432007,359.791290 539.644104,361.606293 539.066467,366.298645 
	C538.264404,372.813538 537.995728,379.394073 537.535950,385.455261 
	C537.017395,382.315338 536.421082,378.704803 535.824768,375.094269 
	C535.839600,371.187225 535.345764,367.192749 535.998474,363.395355 
	C536.807617,358.688477 541.862183,355.696472 547.749573,355.594421 
	C549.557861,355.563049 551.368225,355.655975 553.629028,355.814362 
M546.725342,357.042999 
	C546.443604,357.182220 546.161865,357.321472 545.880127,357.460693 
	C546.620117,357.451355 547.360168,357.442047 548.100159,357.432709 
	C547.811523,357.302612 547.522888,357.172485 546.725342,357.042999 
z"/>
<path fill="#B8FDA8" opacity="1.000000" stroke="none" 
	d="
M704.895996,421.074829 
	C706.718933,420.506134 708.541870,419.937439 711.313049,419.072876 
	C709.957947,418.123932 708.923340,417.623047 708.194885,416.838074 
	C707.040405,415.593719 705.156982,414.109283 705.226318,412.814453 
	C705.450806,408.620575 702.780396,407.357880 699.760437,407.172485 
	C689.020142,406.513184 684.816406,398.786652 680.984619,390.514252 
	C680.637329,389.764435 680.432678,388.943787 680.045593,388.217957 
	C676.176758,380.962891 676.838013,376.896057 682.475159,372.087555 
	C681.543945,369.068451 681.553467,364.982391 679.609497,363.552917 
	C673.259399,358.883484 670.788879,352.984283 672.126770,344.435822 
	C664.987305,348.001190 662.526733,343.878571 660.092041,339.354950 
	C658.927856,337.192017 657.078857,335.406952 655.812683,333.287842 
	C653.122437,328.785583 650.497375,324.236145 648.061279,319.592865 
	C646.069397,315.796265 644.587097,311.727295 642.523621,307.974457 
	C639.834534,303.083954 640.333191,297.187286 643.798096,295.286438 
	C642.837769,294.182159 641.853638,293.050446 640.850464,291.565247 
	C649.325623,291.158569 657.820557,291.006378 666.313538,291.081207 
	C674.065857,291.149506 677.958069,295.333588 677.958069,303.288177 
	C677.958008,317.951385 677.934937,332.614594 677.931824,347.277802 
	C677.930298,354.474396 678.848694,355.158569 685.980164,355.093811 
	C701.023865,354.957092 716.069641,355.041351 731.114563,355.053436 
	C731.740479,355.053925 732.366272,355.240662 732.968994,355.939087 
	C716.041565,355.939087 699.114197,355.939087 682.186768,355.939087 
	C682.174744,356.284302 682.162720,356.629547 682.150696,356.974762 
	C683.790222,356.974762 685.429871,356.962433 687.069275,356.976685 
	C701.171997,357.099304 715.277954,357.101990 729.374634,357.463745 
	C732.018982,357.531616 734.626282,359.040253 737.622070,359.938934 
	C737.993530,359.993835 737.972778,359.973816 738.091797,360.199585 
	C738.481873,360.625183 738.752869,360.825043 739.014465,361.015167 
	C739.005005,361.005402 738.986084,360.985016 738.986084,360.985016 
	C743.061584,367.589783 741.732117,375.036530 742.602539,382.937012 
	C742.668579,385.451996 742.154846,387.231598 742.235657,388.983765 
	C742.360779,391.696808 741.434937,395.122101 745.640198,395.894257 
	C745.374817,400.517303 745.087036,405.139191 744.849121,409.763672 
	C744.478210,416.971710 740.079529,422.101135 733.683350,421.658905 
	C723.664001,421.239868 714.279968,421.157318 704.895996,421.074829 
z"/>
<path fill="#0B8CDC" opacity="1.000000" stroke="none" 
	d="
M440.824890,331.816040 
	C436.565125,360.742920 444.162872,387.694702 454.673767,413.507996 
	C452.730560,414.592407 451.244202,415.421875 450.340424,415.926239 
	C444.729187,411.612213 442.162140,403.512543 433.045990,403.806793 
	C431.711884,403.849854 429.599579,402.117798 429.054810,400.732300 
	C424.860260,390.064362 420.900787,379.302032 417.011566,368.517303 
	C415.773773,365.084900 415.947632,361.015228 410.634613,360.500977 
	C408.957703,360.338684 407.509033,357.818390 405.718628,356.157135 
	C403.809021,357.207916 401.830566,358.296600 398.962280,359.874908 
	C398.962280,354.176239 398.962280,348.927948 398.962280,343.679657 
	C398.509247,343.669464 398.056183,343.659271 397.603149,343.649078 
	C396.739166,350.376709 395.910339,357.109192 394.982025,363.827942 
	C394.792786,365.197418 394.229370,366.515228 393.456451,367.964081 
	C385.521790,344.270721 386.034912,320.356812 392.615875,296.524597 
	C394.761475,288.754639 398.092987,281.312195 401.370911,273.360626 
	C402.811066,272.483124 403.762451,271.964935 404.897125,271.785950 
	C411.095978,275.107513 406.508606,268.428009 408.718323,267.896515 
	C409.693756,269.569824 410.267853,271.478058 411.542328,272.565094 
	C415.144135,275.637177 419.226776,278.162140 422.699768,281.359100 
	C423.854492,282.422089 424.172363,284.893433 424.073181,286.676453 
	C423.977173,288.402527 422.759979,290.041321 422.198334,291.771362 
	C420.770386,296.169891 417.826141,300.930939 424.876862,303.481049 
	C425.688629,303.774628 426.373596,304.840729 426.798767,305.705292 
	C428.305481,308.769257 429.582947,311.894836 434.121918,310.172821 
	C434.744110,309.936737 436.247345,311.015869 436.818085,311.846527 
	C438.318787,314.030609 439.530121,316.413513 440.856720,318.717224 
	C441.214264,318.127136 441.571808,317.537048 441.929352,316.946960 
	C441.561188,321.903320 441.193054,326.859680 440.824890,331.816040 
z"/>
<path fill="#21B8DB" opacity="1.000000" stroke="none" 
	d="
M706.973022,524.989380 
	C700.544739,531.443542 693.969666,537.397095 687.733948,543.687073 
	C681.382690,550.093567 675.354492,556.820984 669.208435,563.429688 
	C667.300537,565.481201 665.469604,567.604187 663.297241,569.821289 
	C663.639709,568.494141 664.217773,567.002625 664.963135,565.600098 
	C665.420410,564.739807 666.819641,563.717651 666.627686,563.276062 
	C664.410583,558.176208 668.463623,556.751953 671.404114,554.508423 
	C675.449585,551.421936 672.166138,547.129700 672.893616,543.446472 
	C673.382446,540.971313 673.409424,538.169189 672.734802,535.768555 
	C672.106873,533.533691 670.477112,531.465454 668.916443,529.642212 
	C667.557739,528.054932 665.679688,526.912048 662.335938,523.578064 
	C658.622803,528.598083 654.909668,533.618103 650.971741,538.942078 
	C649.007812,534.776733 648.206604,531.556641 646.253601,529.361084 
	C644.281982,527.144470 641.168152,525.943787 637.739319,523.784546 
	C633.302612,528.723755 628.077576,534.597046 622.783752,540.407654 
	C620.480225,542.936096 618.259277,545.302917 614.400513,542.214355 
	C613.230774,541.278076 610.733337,542.000488 608.458618,541.632202 
	C608.063965,540.873047 608.054688,540.444702 608.045410,540.016418 
	C608.045410,540.016418 607.998657,540.002380 608.206848,539.930664 
	C608.286011,539.538025 608.156982,539.217163 608.027954,538.896301 
	C603.565308,536.306519 599.029419,533.832764 594.668823,531.081360 
	C592.241882,529.550049 590.168579,527.470459 587.829834,525.785217 
	C576.618286,517.706177 565.278625,509.801636 554.165527,501.590179 
	C545.720032,495.349762 537.548584,488.738586 529.250916,482.297974 
	C512.406494,469.223450 496.485809,455.026062 483.504211,438.132935 
	C474.065186,425.849762 466.371674,412.219788 458.016418,399.116028 
	C456.981537,397.493011 456.664001,395.412659 456.282379,393.240692 
	C456.735718,392.973145 456.920715,393.009155 457.105743,393.045197 
	C461.120056,399.674072 465.103943,406.321655 469.154694,412.928162 
	C479.285126,429.450012 492.454651,443.379761 506.284332,456.797485 
	C525.461609,475.403564 547.031677,490.990448 568.501770,506.713318 
	C581.407349,516.164246 594.404968,525.489746 607.372620,534.855713 
	C608.295044,535.521973 609.311584,536.057922 610.314270,536.672729 
	C616.716675,529.664673 622.939026,522.770203 629.280151,515.986755 
	C630.478333,514.705017 632.148865,513.864807 634.158813,512.851562 
	C635.785889,511.588501 636.855713,510.294708 637.925537,509.000916 
	C637.925537,509.000916 637.951843,508.936096 638.344421,508.958984 
	C641.587341,507.335022 644.422180,505.660522 647.293884,504.051727 
	C648.986328,503.103516 650.737122,502.259399 652.461670,501.368469 
	C652.468323,503.288605 652.465942,505.208893 652.488464,507.128876 
	C652.493469,507.559265 652.585510,507.988617 652.696228,508.904510 
	C657.232361,505.365509 661.390015,501.968048 665.705872,498.785187 
	C676.034424,491.168121 686.437561,483.652130 696.810608,476.095337 
	C697.782349,482.790100 698.723450,489.489655 699.770630,496.172607 
	C699.882263,496.885193 700.654175,497.477478 701.052124,498.164795 
	C703.705261,502.747589 706.850281,507.140625 708.765137,512.015747 
	C709.722046,514.452026 708.500305,517.786011 708.106140,520.692566 
	C707.924194,522.033630 707.363831,523.323364 706.973022,524.989380 
z"/>
<path fill="#63EFDC" opacity="1.000000" stroke="none" 
	d="
M576.642090,206.101105 
	C576.731323,207.920731 576.496826,209.564255 575.690552,211.532791 
	C565.979431,211.038406 556.840149,210.218979 548.266174,209.450256 
	C543.939392,217.847275 551.422974,220.543518 554.393372,225.908936 
	C552.404541,226.376434 551.035461,226.571045 549.757690,227.023483 
	C546.515503,228.171539 543.314270,229.435150 540.096619,230.652481 
	C519.565979,234.555984 501.574860,243.749374 485.470490,256.874237 
	C484.574432,257.604492 483.667236,258.320984 482.388641,258.746033 
	C482.498688,256.797546 483.208801,255.171280 483.392365,253.487595 
	C483.512360,252.387100 483.244080,250.633362 482.507263,250.148483 
	C477.308533,246.727280 471.943268,243.559174 465.650848,239.710739 
	C468.538330,236.121948 470.350037,232.876251 473.037903,230.725525 
	C479.722473,225.376755 487.023499,220.752197 490.850494,212.613785 
	C492.003601,210.161713 493.291809,207.773178 494.511902,205.367798 
	C494.254547,205.088257 494.060791,204.682587 493.803986,204.637756 
	C493.189911,204.530563 492.458099,204.389191 491.927734,204.618149 
	C484.437073,207.851898 475.236633,206.251266 468.906311,212.746994 
	C460.679382,212.136810 455.469360,218.494080 449.361755,222.063187 
	C438.797852,228.236481 428.994263,235.838806 421.340607,245.792908 
	C418.254547,249.806503 414.472046,253.284592 410.914185,256.898895 
	C410.821899,256.791382 410.636353,256.577271 410.636353,256.577271 
	C417.883820,248.244705 424.603577,239.370926 432.483856,231.687363 
	C451.411652,213.232040 475.023315,203.408844 500.570557,199.086731 
	C513.844116,196.841095 527.701660,197.553070 541.282410,197.765030 
	C553.428284,197.954590 565.163940,200.949066 576.642090,206.101105 
z"/>
<path fill="#0B8CDC" opacity="1.000000" stroke="none" 
	d="
M535.665405,375.530884 
	C536.421082,378.704803 537.017395,382.315338 537.535950,385.455261 
	C537.995728,379.394073 538.264404,372.813538 539.066467,366.298645 
	C539.644104,361.606293 545.432007,359.791290 549.898865,362.890778 
	C549.038879,364.009399 548.189453,365.114349 547.666016,365.795258 
	C556.565491,374.141327 565.782776,381.938477 573.954895,390.709412 
	C580.857178,398.117493 585.433472,407.622650 594.982300,412.640747 
	C598.019653,414.236938 597.488892,416.779327 594.113220,417.914490 
	C592.270447,418.534149 590.265137,418.930328 588.326172,418.959229 
	C579.835571,419.085846 571.341736,418.988800 562.850952,419.107391 
	C561.329651,419.128632 559.817200,419.784210 557.771912,420.607056 
	C553.051208,421.066315 548.859314,421.065460 544.667358,421.064575 
	C543.269287,420.571686 541.871216,420.078766 540.116211,419.349884 
	C539.759338,419.113922 539.863770,419.093201 539.863770,419.093201 
	C539.697632,418.963776 539.531494,418.834381 539.191711,418.195648 
	C538.298950,416.851349 537.579834,416.016388 536.860779,415.181396 
	C536.675964,414.913116 536.491150,414.644867 536.218750,413.700867 
	C536.057800,412.488647 535.984375,411.952148 535.911011,411.415649 
	C535.775940,399.599579 535.640991,387.783539 535.665405,375.530884 
z"/>
<path fill="#66DB7B" opacity="1.000000" stroke="none" 
	d="
M801.141235,260.841492 
	C799.241821,258.254791 797.837708,254.967407 795.348938,253.275543 
	C789.785828,249.493713 786.483154,244.250153 783.708923,238.462051 
	C782.393677,235.717880 780.472351,232.976135 780.178589,230.095352 
	C779.691956,225.323303 781.847412,223.451462 786.207153,225.089676 
	C793.231873,227.729263 800.017517,231.076996 806.710571,234.503647 
	C811.738037,237.077545 814.645752,237.058197 816.989075,233.484039 
	C818.637817,230.969254 816.820557,226.958954 813.247375,224.433777 
	C809.375122,221.697296 805.692078,218.693069 801.821960,215.725464 
	C803.541809,213.272583 804.230835,208.487427 809.864441,210.097748 
	C812.160156,210.778275 814.319336,211.781021 816.938965,213.239929 
	C819.035217,214.531525 820.671082,215.366943 822.306946,216.202362 
	C824.103027,217.499481 825.899170,218.796600 828.067444,220.341431 
	C828.439636,220.589172 828.676086,220.787415 828.676086,220.787415 
	C828.676086,220.787415 829.041870,220.967773 829.199463,221.219696 
	C829.357056,221.471619 829.579590,221.799149 829.579590,221.799149 
	C829.579590,221.799149 829.969910,221.971771 830.302124,222.309418 
	C831.879211,223.426910 833.124146,224.206757 834.369080,224.986618 
	C835.116699,225.351074 835.864380,225.715546 836.929626,226.596283 
	C837.637390,227.424469 838.027527,227.736359 838.417603,228.048279 
	C838.764526,228.140350 839.111450,228.232407 839.935242,228.537262 
	C840.412109,228.750046 840.358276,228.802872 840.358276,228.802872 
	C840.483032,228.958771 840.607788,229.114655 840.904785,229.901093 
	C841.524170,233.691101 842.616333,236.921539 842.278137,239.994568 
	C841.660278,245.609375 839.980774,251.101913 839.222229,256.710144 
	C839.007568,258.297150 840.452026,260.108643 841.135559,261.817169 
	C834.688538,261.867737 828.241455,261.918304 820.980408,261.971436 
	C819.678772,263.151917 818.726074,264.355225 818.788696,265.503143 
	C818.995850,269.303223 816.750244,270.375000 813.849731,269.627960 
	C811.606812,269.050232 809.588318,267.396332 807.621216,266.006897 
	C805.385742,264.427948 803.318420,262.610931 801.178040,260.897400 
	C801.178040,260.897369 801.144348,260.864838 801.141235,260.841492 
M811.483521,212.660797 
	C811.483521,212.660797 811.615967,212.409348 811.615967,212.409348 
	C811.615967,212.409348 811.330811,212.455246 811.483521,212.660797 
z"/>
<path fill="#0B8CDC" opacity="1.000000" stroke="none" 
	d="
M603.728394,457.454681 
	C604.585999,456.110046 605.811523,455.255768 605.895325,454.301147 
	C606.402283,448.530731 606.570129,442.731079 607.033936,436.955872 
	C607.156616,435.428070 607.538635,433.100616 608.491455,432.671295 
	C609.637390,432.154968 611.889160,432.832489 613.010498,433.771423 
	C615.767761,436.080139 618.422607,438.627563 620.600830,441.475067 
	C622.370056,443.787933 623.618958,445.486084 627.034912,444.300262 
	C628.820618,443.680328 631.144165,444.609802 633.880554,444.911896 
	C634.456177,439.923920 634.998657,435.223541 635.877502,430.266602 
	C636.198547,430.696777 636.183167,431.383545 636.095215,432.899292 
	C636.348267,439.669891 636.625061,445.615021 637.056763,451.548889 
	C637.115540,452.356659 637.775024,453.555878 638.449341,453.816925 
	C645.704346,456.625092 650.723511,461.837769 654.874756,468.214752 
	C656.299072,470.402893 657.882996,473.372253 661.617554,471.462708 
	C661.749512,471.395264 663.313232,473.762054 663.279358,473.788208 
	C659.216919,476.921722 655.457825,481.230133 650.820862,482.637787 
	C645.133667,484.364197 638.701904,484.025299 632.604187,483.914337 
	C624.950256,483.775024 617.308655,482.961456 609.437622,482.223022 
	C608.478760,481.775757 607.744019,481.544312 607.009277,481.312897 
	C607.009277,481.312897 606.796692,481.224518 606.604004,480.804688 
	C605.509888,477.346802 604.608521,474.308716 603.707153,471.270630 
	C603.661011,466.813324 603.614807,462.355988 603.728394,457.454681 
z"/>
<path fill="#21B8DB" opacity="1.000000" stroke="none" 
	d="
M609.661743,482.438873 
	C617.308655,482.961456 624.950256,483.775024 632.604187,483.914337 
	C638.701904,484.025299 645.133667,484.364197 650.820862,482.637787 
	C655.457825,481.230133 659.216919,476.921722 663.279358,473.788208 
	C663.313232,473.762054 661.749512,471.395264 661.617554,471.462708 
	C657.882996,473.372253 656.299072,470.402893 654.874756,468.214752 
	C650.723511,461.837769 645.704346,456.625092 638.449341,453.816925 
	C637.775024,453.555878 637.115540,452.356659 637.056763,451.548889 
	C636.625061,445.615021 636.348267,439.669891 636.098145,433.242981 
	C637.096375,430.734283 638.019104,428.710938 639.175659,426.174927 
	C649.604736,432.340515 660.878113,429.831360 672.984070,427.140930 
	C672.984070,429.703125 672.756348,431.960236 673.049866,434.147400 
	C673.328735,436.225159 671.368103,439.392273 675.502258,440.060974 
	C675.812256,440.111115 675.900635,442.180359 675.913513,443.312988 
	C676.000000,450.939819 676.038208,458.567230 676.202148,466.660095 
	C669.675537,472.794952 663.121582,478.566803 656.326538,484.039368 
	C655.093140,485.032684 652.874878,485.078522 651.108215,485.089874 
	C638.961731,485.168091 626.814514,485.120911 614.034058,484.822388 
	C612.559937,484.427124 611.719299,484.323486 610.878662,484.219849 
	C610.578491,484.088745 610.278320,483.957642 609.745361,483.352966 
	C609.512573,482.879425 609.661743,482.438873 609.661743,482.438873 
z"/>
<path fill="#66DB7B" opacity="1.000000" stroke="none" 
	d="
M745.933105,395.616394 
	C741.434937,395.122101 742.360779,391.696808 742.235657,388.983765 
	C742.154846,387.231598 742.668579,385.451996 742.834045,383.258484 
	C742.869690,380.378784 742.987183,377.925232 743.096191,375.648010 
	C768.207336,372.279724 791.965637,365.972748 813.957886,353.894226 
	C814.677368,353.499084 815.507507,353.305420 816.649414,352.921326 
	C816.978943,353.001770 816.945068,353.178711 816.720581,353.719482 
	C816.557129,354.285461 816.584351,354.487549 816.611572,354.689667 
	C816.792114,354.516235 816.972656,354.342804 817.153198,354.169342 
	C821.997070,352.538696 826.780273,350.666229 831.722229,349.426483 
	C833.183716,349.059845 835.092834,350.477875 836.872070,351.407471 
	C810.581421,374.332520 779.697144,387.526794 745.933105,395.616394 
z"/>
<path fill="#63EFDC" opacity="1.000000" stroke="none" 
	d="
M697.054077,475.833496 
	C686.437561,483.652130 676.034424,491.168121 665.705872,498.785187 
	C661.390015,501.968048 657.232361,505.365509 652.696228,508.904510 
	C652.585510,507.988617 652.493469,507.559265 652.488464,507.128876 
	C652.465942,505.208893 652.468323,503.288605 652.461670,501.368469 
	C650.737122,502.259399 648.986328,503.103516 647.293884,504.051727 
	C644.422180,505.660522 641.587341,507.335022 638.379395,508.959778 
	C641.871765,504.972351 645.270996,500.396118 649.658142,497.158447 
	C661.883301,488.136353 674.515076,479.664886 686.993042,470.985718 
	C691.401428,467.919434 695.829407,464.881439 700.605347,461.688110 
	C700.972046,461.789001 700.981812,462.032288 700.857605,462.694702 
	C700.813599,463.072998 700.903564,463.032166 700.993530,462.991364 
	C703.125061,462.469513 705.256531,461.947662 707.773743,461.331360 
	C707.885193,463.426422 707.985596,465.313171 708.163696,467.624207 
	C704.593506,470.556183 700.945557,473.063934 697.054077,475.833496 
z"/>
<path fill="#63EFDC" opacity="1.000000" stroke="none" 
	d="
M856.096680,271.634277 
	C856.071167,272.229614 856.045715,272.824921 855.997559,274.295105 
	C855.968140,278.637085 855.923096,282.104614 855.964600,285.571136 
	C856.017517,289.993195 854.310730,292.246979 849.461182,292.045288 
	C842.704651,291.764191 835.927124,291.985718 829.158630,291.992126 
	C828.690979,291.981384 828.223328,291.970612 827.570068,291.695984 
	C826.949097,290.020508 826.123718,288.602936 826.145264,287.198364 
	C826.241882,280.879913 826.578979,274.565125 826.881226,266.940674 
	C835.208679,266.940674 842.438416,267.207703 849.634888,266.833923 
	C853.538391,266.631165 855.526001,267.894470 856.096680,271.634277 
z"/>
<path fill="#63EFDC" opacity="1.000000" stroke="none" 
	d="
M892.559631,241.541443 
	C892.580200,247.304352 892.479858,252.624466 892.661194,257.934967 
	C892.773987,261.237244 891.763550,262.831055 888.172607,262.743927 
	C881.063965,262.571320 873.948181,262.692932 866.395935,262.692932 
	C866.395935,254.098312 866.395935,246.101425 866.395935,237.438950 
	C874.289062,237.438950 881.896790,237.296295 889.486511,237.601471 
	C890.555298,237.644455 891.536133,239.876053 892.559631,241.541443 
z"/>
<path fill="#B8FDA8" opacity="1.000000" stroke="none" 
	d="
M860.034180,424.962708 
	C861.455322,414.039459 868.017700,405.255981 872.165955,395.461395 
	C878.102234,381.445190 884.463928,367.483917 885.208679,351.844452 
	C885.451111,346.752960 886.675232,341.703583 886.846191,336.614655 
	C887.011719,331.690338 886.399902,326.739868 886.514648,321.441925 
	C887.909851,323.270721 888.919983,325.458527 890.021667,327.844788 
	C890.021667,325.829956 890.021667,323.906982 890.021667,321.287598 
	C890.927795,323.405060 891.534973,324.823975 892.142151,326.242859 
	C892.091187,334.619904 892.752319,343.075775 891.835876,351.357056 
	C890.113525,366.920807 885.752319,381.951508 878.684875,395.930450 
	C873.694580,405.800781 867.527649,415.076172 861.298706,424.774170 
	C860.485657,424.941620 860.259949,424.952179 860.034180,424.962708 
z"/>
<path fill="#63EFDC" opacity="1.000000" stroke="none" 
	d="
M911.052979,208.158722 
	C911.058228,213.131760 910.965088,217.630524 911.100220,222.122391 
	C911.181396,224.820862 910.310059,226.113083 907.421692,226.052719 
	C901.762695,225.934464 896.097839,225.945450 890.438660,226.062302 
	C887.867188,226.115402 886.906250,225.131317 886.878235,222.562363 
	C886.823792,217.577499 886.553955,212.593140 886.289429,207.613037 
	C886.093994,203.931519 887.355957,202.021759 891.430969,202.230301 
	C896.247253,202.476776 901.105591,202.558731 905.908875,202.207626 
	C910.268921,201.888916 911.630005,203.701843 911.052979,208.158722 
z"/>
<path fill="#21B8DB" opacity="1.000000" stroke="none" 
	d="
M841.586792,261.867249 
	C840.452026,260.108643 839.007568,258.297150 839.222229,256.710144 
	C839.980774,251.101913 841.660278,245.609375 842.278137,239.994568 
	C842.616333,236.921539 841.524170,233.691101 840.989014,230.188538 
	C847.917908,236.455444 855.547119,242.547104 861.735535,249.858307 
	C865.836060,254.702774 861.314148,261.791046 854.981934,261.857300 
	C850.667603,261.902435 846.352661,261.899017 841.586792,261.867249 
z"/>
<path fill="#B8FDA8" opacity="1.000000" stroke="none" 
	d="
M868.771484,213.846893 
	C868.715393,220.884216 868.715393,220.892303 862.164307,220.915237 
	C858.349060,220.928604 854.533386,220.939987 850.718445,220.899872 
	C846.168457,220.852051 844.161743,218.858215 844.256775,214.322891 
	C844.287354,212.862228 844.769409,211.413025 845.022339,209.954666 
	C846.901855,199.118866 846.900146,199.118561 857.948608,199.110153 
	C868.807739,199.101898 868.807312,199.101898 868.768982,209.894852 
	C868.764893,211.056015 868.770020,212.217224 868.771484,213.846893 
z"/>
<path fill="#63EFDC" opacity="1.000000" stroke="none" 
	d="
M816.615112,314.917847 
	C816.455872,323.846741 818.536072,323.830322 808.409790,323.709442 
	C803.826477,323.654755 797.773132,324.837463 795.112671,322.437195 
	C792.796326,320.347473 794.286560,314.009735 794.147583,309.547455 
	C794.080811,307.404755 794.136047,305.258270 794.136047,302.295349 
	C801.089233,302.295349 807.690308,302.186066 814.277832,302.434814 
	C815.093628,302.465637 816.388123,304.342285 816.507812,305.465179 
	C816.823669,308.427155 816.615295,311.445038 816.615112,314.917847 
z"/>
<path fill="#63EFDC" opacity="1.000000" stroke="none" 
	d="
M892.168152,325.979034 
	C891.534973,324.823975 890.927795,323.405060 890.021667,321.287598 
	C890.021667,323.906982 890.021667,325.829956 890.021667,327.844788 
	C888.919983,325.458527 887.909851,323.270721 886.540894,321.005798 
	C885.581604,312.144745 878.189087,308.834930 872.288940,303.883789 
	C874.252197,295.875458 876.524231,288.056854 878.915039,279.856323 
	C881.808044,285.403015 885.347412,291.107544 887.166016,297.316101 
	C889.521423,305.357361 890.504944,313.800537 892.033936,322.885254 
	C892.048828,324.195160 892.108826,324.690399 892.168823,325.185638 
	C892.177307,325.362152 892.185730,325.538666 892.168152,325.979034 
z"/>
<path fill="#B8FDA8" opacity="1.000000" stroke="none" 
	d="
M786.240906,265.037201 
	C787.370544,265.032501 788.037415,264.986938 788.696045,265.040924 
	C791.932861,265.306305 797.422058,264.696075 797.965881,266.055359 
	C799.402832,269.646912 799.045105,274.133881 798.607117,278.178375 
	C798.491943,279.241821 795.307983,280.966766 793.843811,280.697845 
	C789.967041,279.985687 784.546326,283.677460 782.433716,278.219727 
	C781.205078,275.045593 781.948730,270.992432 782.332947,267.391144 
	C782.428406,266.495972 784.572083,265.819336 786.240906,265.037201 
z"/>
<path fill="#63EFDC" opacity="1.000000" stroke="none" 
	d="
M783.783569,335.088989 
	C783.793274,337.043335 783.750549,338.543030 783.881958,340.027344 
	C784.165833,343.233459 782.590637,344.452850 779.547852,344.672058 
	C768.821045,345.445007 768.046631,344.766266 768.243958,334.019196 
	C768.268066,332.704437 768.386108,331.391418 768.510315,329.201080 
	C772.818420,329.201080 777.057068,329.025299 781.273804,329.253540 
	C785.035522,329.457123 783.432373,332.600677 783.783569,335.088989 
z"/>
<path fill="#B8FDA8" opacity="1.000000" stroke="none" 
	d="
M856.327881,271.402130 
	C855.526001,267.894470 853.538391,266.631165 849.634888,266.833923 
	C842.438416,267.207703 835.208679,266.940674 826.881226,266.940674 
	C826.578979,274.565125 826.241882,280.879913 826.145264,287.198364 
	C826.123718,288.602936 826.949097,290.020508 827.221191,291.659241 
	C824.326111,292.348724 823.029114,291.328613 823.089355,288.426361 
	C823.192688,283.441833 823.153381,278.453003 823.089722,273.467072 
	C823.070312,271.946655 822.774353,270.429779 822.744019,270.158081 
	C818.701294,270.847107 814.571960,272.912567 812.226135,271.653900 
	C807.961731,269.365753 804.757263,265.102081 801.144287,261.280090 
	C803.318420,262.610931 805.385742,264.427948 807.621216,266.006897 
	C809.588318,267.396332 811.606812,269.050232 813.849731,269.627960 
	C816.750244,270.375000 818.995850,269.303223 818.788696,265.503143 
	C818.726074,264.355225 819.678772,263.151917 820.501587,261.967041 
	C820.975464,263.633636 821.114075,265.307159 821.176208,266.057373 
	C826.040588,265.675415 830.138062,265.194550 834.246399,265.070343 
	C839.694275,264.905670 845.166443,265.275696 850.598328,264.937103 
	C855.415588,264.636810 857.444946,266.340088 856.327881,271.402130 
z"/>
<path fill="#B8FDA8" opacity="1.000000" stroke="none" 
	d="
M822.651184,215.899033 
	C820.671082,215.366943 819.035217,214.531525 817.225464,213.437393 
	C817.773987,211.587433 819.023010,210.027527 819.119934,208.399048 
	C819.408264,203.554718 822.737732,204.251190 825.883240,204.067963 
	C830.095947,203.822586 830.788086,206.234863 830.870789,209.681381 
	C830.950256,212.990097 830.384827,215.269592 826.332458,214.930054 
	C825.246338,214.839050 824.109131,215.357208 822.651184,215.899033 
z"/>
<path fill="#63EFDC" opacity="1.000000" stroke="none" 
	d="
M748.437012,315.626160 
	C750.603455,312.420929 756.674744,310.865143 757.582031,313.150543 
	C758.691284,315.944763 758.597290,319.521942 757.922913,322.512329 
	C757.745911,323.297272 753.426514,323.620239 751.153625,323.255768 
	C750.061096,323.080536 749.079712,320.905731 748.473694,319.458221 
	C748.062500,318.475800 748.391541,317.183533 748.437012,315.626160 
z"/>
<path fill="#63EFDC" opacity="1.000000" stroke="none" 
	d="
M777.637085,295.615326 
	C777.819763,296.347961 777.890442,296.675446 777.903137,297.005157 
	C778.227356,305.435089 777.631836,305.903442 768.029175,303.923370 
	C768.368469,301.040863 767.770508,297.246002 769.392334,295.341095 
	C770.549194,293.982330 774.689209,295.163452 777.637085,295.615326 
z"/>
<path fill="#66DB7B" opacity="1.000000" stroke="none" 
	d="
M544.921387,421.293854 
	C548.859314,421.065460 553.051208,421.066315 557.725708,420.993958 
	C569.886963,420.836487 581.565735,420.715485 593.244629,420.699493 
	C595.520447,420.696381 597.796875,421.101379 600.317017,421.537994 
	C582.099182,421.679626 563.637268,421.601349 544.921387,421.293854 
z"/>
<path fill="#66DB7B" opacity="1.000000" stroke="none" 
	d="
M704.438232,421.068237 
	C714.279968,421.157318 723.664001,421.239868 733.372864,421.513489 
	C716.469971,421.765564 699.242126,421.826477 681.561279,421.829437 
	C688.732239,421.534851 696.356323,421.298248 704.438232,421.068237 
z"/>
<path fill="#B8FDA8" opacity="1.000000" stroke="none" 
	d="
M829.465942,292.237549 
	C835.927124,291.985718 842.704651,291.764191 849.461182,292.045288 
	C854.310730,292.246979 856.017517,289.993195 855.964600,285.571136 
	C855.923096,282.104614 855.968140,278.637085 856.010254,274.741943 
	C856.268250,279.684845 856.650330,285.058960 856.542664,290.423279 
	C856.526367,291.233826 854.238525,292.658325 852.984802,292.676788 
	C845.250305,292.790985 837.510986,292.583527 829.465942,292.237549 
z"/>
<path fill="#63EFDC" opacity="1.000000" stroke="none" 
	d="
M404.713867,271.446747 
	C403.762451,271.964935 402.811066,272.483124 401.531982,273.041565 
	C404.154907,267.692566 407.105560,262.303345 410.346283,256.745697 
	C410.636353,256.577271 410.821899,256.791382 410.829102,257.253204 
	C408.795502,262.292267 406.754669,266.869507 404.713867,271.446747 
z"/>
<path fill="#1365A4" opacity="1.000000" stroke="none" 
	d="
M553.186707,552.246216 
	C555.663330,553.765808 558.306519,555.574280 560.947327,557.738525 
	C558.414429,556.241211 555.883789,554.388184 553.186707,552.246216 
z"/>
<path fill="#66DB7B" opacity="1.000000" stroke="none" 
	d="
M603.540649,471.605743 
	C604.608521,474.308716 605.509888,477.346802 606.508545,480.740265 
	C605.528564,478.044067 604.451355,474.992462 603.540649,471.605743 
z"/>
<path fill="#B8FDA8" opacity="1.000000" stroke="none" 
	d="
M738.003784,360.004272 
	C738.168030,359.143066 738.321960,358.271393 738.703552,356.110474 
	C740.803894,358.739166 742.194702,360.479828 743.585510,362.220490 
	C743.297485,362.528748 743.009521,362.837006 742.721497,363.145264 
	C741.697083,362.452972 740.672668,361.760712 739.317139,361.026733 
	C738.986084,360.985016 739.005005,361.005402 738.905884,360.780762 
	C738.528748,360.362030 738.250732,360.167938 737.972778,359.973816 
	C737.972778,359.973816 737.993530,359.993835 738.003784,360.004272 
z"/>
<path fill="#66DB7B" opacity="1.000000" stroke="none" 
	d="
M603.540894,425.756531 
	C603.844360,427.303467 603.980042,429.189850 603.893555,431.210815 
	C603.571899,429.595581 603.472473,427.845764 603.540894,425.756531 
z"/>
<path fill="#63EFDC" opacity="1.000000" stroke="none" 
	d="
M637.564636,508.968628 
	C636.855713,510.294708 635.785889,511.588501 634.471741,512.757568 
	C635.219482,511.400665 636.211609,510.168518 637.564636,508.968628 
z"/>
<path fill="#21B8DB" opacity="1.000000" stroke="none" 
	d="
M834.346924,224.706955 
	C833.124146,224.206757 831.879211,223.426910 830.414612,222.490753 
	C831.571533,223.032059 832.948120,223.729675 834.346924,224.706955 
z"/>
<path fill="#1365A4" opacity="1.000000" stroke="none" 
	d="
M560.928589,558.356873 
	C562.270813,559.091980 563.625793,560.156250 565.033691,561.555725 
	C563.704834,560.822693 562.323059,559.754333 560.928589,558.356873 
z"/>
<path fill="#21B8DB" opacity="1.000000" stroke="none" 
	d="
M536.784302,415.430847 
	C537.579834,416.016388 538.298950,416.851349 539.022339,417.929016 
	C538.253662,417.341217 537.480713,416.510742 536.784302,415.430847 
z"/>
<path fill="#1365A4" opacity="1.000000" stroke="none" 
	d="
M455.089844,388.647583 
	C454.393341,387.570496 453.695740,386.137268 452.992432,384.341736 
	C453.687378,385.416809 454.388062,386.854126 455.089844,388.647583 
z"/>
<path fill="#1365A4" opacity="1.000000" stroke="none" 
	d="
M457.055023,392.704895 
	C456.920715,393.009155 456.735718,392.973145 456.282593,392.844604 
	C455.704041,391.698242 455.393585,390.644440 455.058167,389.251587 
	C455.690216,390.063202 456.347260,391.213898 457.055023,392.704895 
z"/>
<path fill="#66DB7B" opacity="1.000000" stroke="none" 
	d="
M609.437622,482.223022 
	C609.661743,482.438873 609.512573,482.879425 609.356323,483.052765 
	C608.520142,482.750977 607.840149,482.275879 607.084717,481.556824 
	C607.744019,481.544312 608.478760,481.775757 609.437622,482.223022 
z"/>
<path fill="#66DB7B" opacity="1.000000" stroke="none" 
	d="
M611.033813,484.394440 
	C611.719299,484.323486 612.559937,484.427124 613.550781,484.752747 
	C612.863586,484.839478 612.026306,484.704254 611.033813,484.394440 
z"/>
<path fill="#21B8DB" opacity="1.000000" stroke="none" 
	d="
M838.451660,227.805847 
	C838.027527,227.736359 837.637390,227.424469 837.123535,226.976395 
	C837.495178,227.081268 837.990479,227.322342 838.451660,227.805847 
z"/>
<path fill="#21B8DB" opacity="1.000000" stroke="none" 
	d="
M535.792969,411.603394 
	C535.984375,411.952148 536.057800,412.488647 536.111938,413.224091 
	C535.953430,412.879089 535.814148,412.335114 535.792969,411.603394 
z"/>
<path fill="#B8FDA8" opacity="1.000000" stroke="none" 
	d="
M735.983276,356.279053 
	C736.101440,356.451965 736.043335,356.623932 735.985229,356.795868 
	C735.925781,356.623291 735.866333,356.450714 735.983276,356.279053 
z"/>
<path fill="#63EFDC" opacity="1.000000" stroke="none" 
	d="
M878.986877,279.029358 
	C878.609619,279.225372 878.148254,279.111237 877.329590,278.977600 
	C877.615784,278.878418 878.259338,278.798798 878.986877,279.029358 
z"/>
<path fill="#B8FDA8" opacity="1.000000" stroke="none" 
	d="
M892.326599,324.983002 
	C892.108826,324.690399 892.048828,324.195160 892.037109,323.328857 
	C892.218323,323.565369 892.351379,324.172852 892.326599,324.983002 
z"/>
<path fill="#21B8DB" opacity="1.000000" stroke="none" 
	d="
M828.710327,220.656433 
	C828.676086,220.787415 828.439636,220.589172 828.388611,220.532104 
	C828.473206,220.491852 828.608887,220.508667 828.710327,220.656433 
z"/>
<path fill="#1365A4" opacity="1.000000" stroke="none" 
	d="
M453.004303,383.714020 
	C452.685089,383.539185 452.362396,383.056854 452.016968,382.264832 
	C452.329803,382.438904 452.665283,382.922729 453.004303,383.714020 
z"/>
<path fill="#21B8DB" opacity="1.000000" stroke="none" 
	d="
M829.621216,221.671265 
	C829.579590,221.799149 829.357056,221.471619 829.292603,221.401077 
	C829.438599,221.268616 829.583496,221.339569 829.621216,221.671265 
z"/>
<path fill="#21B8DB" opacity="1.000000" stroke="none" 
	d="
M840.400513,228.767181 
	C840.358276,228.802872 840.412109,228.750046 840.421997,228.767258 
	C840.431946,228.784470 840.442810,228.731491 840.400513,228.767181 
z"/>
<path fill="#21B8DB" opacity="1.000000" stroke="none" 
	d="
M539.808472,419.083832 
	C539.863770,419.093201 539.759338,419.113922 539.745483,419.088562 
	C539.731567,419.063232 539.753174,419.074463 539.808472,419.083832 
z"/>
<path fill="#1365A4" opacity="1.000000" stroke="none" 
	d="
M786.338806,502.029541 
	C786.311646,501.777039 786.618469,501.484192 787.245605,501.105164 
	C787.268127,501.342407 786.970459,501.665802 786.338806,502.029541 
z"/>
<path fill="#1365A4" opacity="1.000000" stroke="none" 
	d="
M452.010986,381.707886 
	C451.754211,381.788910 451.480530,381.556213 451.140747,381.050049 
	C451.381134,380.982483 451.687622,381.188354 452.010986,381.707886 
z"/>
<path fill="#66DB7B" opacity="1.000000" stroke="none" 
	d="
M860.018188,424.980316 
	C860.259949,424.952179 860.485657,424.941620 861.048340,424.973755 
	C861.207031,425.361023 861.028687,425.705566 860.624390,426.231171 
	C860.398499,426.412231 860.129761,426.129730 860.021301,425.782166 
	C859.912842,425.434631 859.970154,425.033081 859.970154,425.033081 
	C859.970154,425.033081 860.002136,424.997925 860.018188,424.980316 
z"/>
<path fill="#B8FDA8" opacity="1.000000" stroke="none" 
	d="
M859.793823,425.079865 
	C859.970154,425.033081 859.912842,425.434631 859.893250,425.635193 
	C859.708801,425.688354 859.540161,425.544586 859.390259,425.383240 
	C859.382690,425.375061 859.538086,425.215637 859.793823,425.079865 
z"/>
<path fill="#21B8DB" opacity="1.000000" stroke="none" 
	d="
M404.897156,271.785950 
	C406.754669,266.869507 408.795502,262.292267 410.921417,257.360718 
	C414.472046,253.284592 418.254547,249.806503 421.340607,245.792908 
	C428.994263,235.838806 438.797852,228.236481 449.361755,222.063187 
	C455.469360,218.494080 460.679382,212.136810 468.906311,212.746994 
	C475.236633,206.251266 484.437073,207.851898 491.927734,204.618149 
	C492.458099,204.389191 493.189911,204.530563 493.803986,204.637756 
	C494.060791,204.682587 494.254547,205.088257 494.511902,205.367798 
	C493.291809,207.773178 492.003601,210.161713 490.850494,212.613785 
	C487.023499,220.752197 479.722473,225.376755 473.037903,230.725525 
	C470.350037,232.876251 468.538330,236.121948 465.650848,239.710739 
	C471.943268,243.559174 477.308533,246.727280 482.507263,250.148483 
	C483.244080,250.633362 483.512360,252.387100 483.392365,253.487595 
	C483.208801,255.171280 482.498688,256.797546 482.046783,258.784882 
	C482.081512,259.121582 482.040833,259.089935 481.680115,259.066071 
	C474.546631,262.570007 469.238373,267.404510 467.056335,275.028290 
	C467.056335,275.028290 467.015106,275.002808 466.791809,275.112366 
	C466.388702,275.495697 466.208893,275.769440 466.029114,276.043152 
	C466.029083,276.043152 466.008911,275.993683 465.787445,276.131958 
	C465.404694,276.767944 465.243378,277.265656 465.082092,277.763367 
	C464.874603,278.114563 464.667114,278.465759 463.934113,278.964722 
	C463.166779,279.635773 462.924957,280.159027 462.683105,280.682312 
	C457.543427,290.143890 451.848694,299.356384 447.453156,309.151886 
	C444.362396,316.039703 443.039459,323.720795 440.876038,331.431885 
	C441.193054,326.859680 441.561188,321.903320 441.929352,316.946960 
	C441.571808,317.537048 441.214264,318.127136 440.856720,318.717224 
	C439.530121,316.413513 438.318787,314.030609 436.818085,311.846527 
	C436.247345,311.015869 434.744110,309.936737 434.121918,310.172821 
	C429.582947,311.894836 428.305481,308.769257 426.798767,305.705292 
	C426.373596,304.840729 425.688629,303.774628 424.876862,303.481049 
	C417.826141,300.930939 420.770386,296.169891 422.198334,291.771362 
	C422.759979,290.041321 423.977173,288.402527 424.073181,286.676453 
	C424.172363,284.893433 423.854492,282.422089 422.699768,281.359100 
	C419.226776,278.162140 415.144135,275.637177 411.542328,272.565094 
	C410.267853,271.478058 409.693756,269.569824 408.718323,267.896515 
	C406.508606,268.428009 411.095978,275.107513 404.897156,271.785950 
z"/>
<path fill="#FFFFFF" opacity="1.000000" stroke="none" 
	d="
M540.470337,230.565674 
	C543.314270,229.435150 546.515503,228.171539 549.757690,227.023483 
	C551.035461,226.571045 552.404541,226.376434 554.393372,225.908936 
	C551.422974,220.543518 543.939392,217.847275 548.266174,209.450256 
	C556.840149,210.218979 565.979431,211.038406 575.537231,211.805786 
	C585.135864,216.189804 594.317688,220.622253 603.490051,225.074127 
	C603.882446,225.264572 604.187622,225.634735 605.327393,226.578842 
	C601.877075,226.890900 599.221436,227.131088 595.712585,227.448441 
	C597.649414,231.401718 600.489380,233.247452 603.876587,234.886063 
	C606.443604,236.127930 608.583435,238.252670 610.877441,240.343994 
	C601.696594,234.902466 591.393372,232.392776 580.955078,230.407730 
	C567.602295,227.868439 554.209045,227.586090 540.470337,230.565674 
z"/>
<path fill="#63EFDC" opacity="1.000000" stroke="none" 
	d="
M467.324768,274.836731 
	C469.238373,267.404510 474.546631,262.570007 481.682312,259.040649 
	C477.227844,264.241119 472.410522,269.443146 467.324768,274.836731 
z"/>
<path fill="#63EFDC" opacity="1.000000" stroke="none" 
	d="
M462.814056,280.466064 
	C462.924957,280.159027 463.166779,279.635773 463.659210,279.106812 
	C463.588196,279.483978 463.266571,279.866882 462.814056,280.466064 
z"/>
<path fill="#FFFFFF" opacity="1.000000" stroke="none" 
	d="
M612.477295,240.874756 
	C612.739136,240.824997 613.299438,240.907547 613.904541,241.287079 
	C613.558167,241.391754 613.166931,241.199417 612.477295,240.874756 
z"/>
<path fill="#63EFDC" opacity="1.000000" stroke="none" 
	d="
M465.288422,277.611450 
	C465.243378,277.265656 465.404694,276.767944 465.808594,276.148499 
	C465.865723,276.504364 465.680237,276.981964 465.288422,277.611450 
z"/>
<path fill="#63EFDC" opacity="1.000000" stroke="none" 
	d="
M466.263245,275.957001 
	C466.208893,275.769440 466.388702,275.495697 466.802460,275.133972 
	C466.942047,275.376678 466.762360,275.651611 466.263245,275.957001 
z"/>
<path fill="#0B8CDC" opacity="1.000000" stroke="none" 
	d="
M455.522827,416.555298 
	C455.461273,416.595123 455.584412,416.515442 455.522827,416.555298 
z"/>
<path fill="#1365A4" opacity="1.000000" stroke="none" 
	d="
M598.992798,553.994995 
	C596.875488,559.267456 594.758118,564.539978 592.437073,570.319519 
	C589.417297,568.380188 586.983765,566.817383 584.550293,565.254578 
	C592.562622,565.736816 592.951233,556.764221 598.701294,554.036499 
	C599.000000,554.000000 598.992859,553.994995 598.992798,553.994995 
z"/>
<path fill="#1365A4" opacity="1.000000" stroke="none" 
	d="
M599.003662,554.003784 
	C599.215454,548.666321 602.848389,545.420776 606.655640,542.035583 
	C607.000000,542.000000 606.988159,541.988770 606.988159,541.988770 
	C604.525452,545.891907 602.062744,549.795044 599.296387,553.846558 
	C598.992859,553.994995 599.000000,554.000000 599.003662,554.003784 
z"/>
<path fill="#21B8DB" opacity="1.000000" stroke="none" 
	d="
M661.495239,572.050476 
	C661.360352,572.575500 660.932922,573.150635 660.249878,573.827759 
	C660.396973,573.319946 660.799805,572.710266 661.495239,572.050476 
z"/>
<path fill="#1365A4" opacity="1.000000" stroke="none" 
	d="
M607.789429,540.174927 
	C608.054688,540.444702 608.063965,540.873047 608.078796,541.621582 
	C607.901733,541.949524 607.719055,541.957214 607.262207,541.976807 
	C606.988159,541.988770 607.000000,542.000000 607.005981,542.006165 
	C607.185852,541.452698 607.359680,540.893066 607.789429,540.174927 
z"/>
<path fill="#21B8DB" opacity="1.000000" stroke="none" 
	d="
M662.721924,570.156250 
	C662.791809,570.521667 662.635254,571.030212 662.236694,571.657715 
	C662.161682,571.284241 662.328613,570.791809 662.721924,570.156250 
z"/>
<path fill="#1365A4" opacity="1.000000" stroke="none" 
	d="
M565.995667,551.003357 
	C566.121521,551.142639 566.251648,551.278564 566.381836,551.414490 
	C566.294250,551.366638 566.206665,551.318726 566.062500,551.131348 
	C566.005920,550.991882 566.000000,551.000000 565.995667,551.003357 
z"/>
<path fill="#21B8DB" opacity="1.000000" stroke="none" 
	d="
M659.447876,570.538818 
	C659.414795,570.482666 659.481018,570.594971 659.447876,570.538818 
z"/>
<path fill="#1365A4" opacity="1.000000" stroke="none" 
	d="
M608.032654,539.181152 
	C608.156982,539.217163 608.286011,539.538025 608.224792,539.947388 
	C608.035461,539.846008 608.036438,539.656067 608.032654,539.181152 
z"/>
<path fill="#0B8CDC" opacity="1.000000" stroke="none" 
	d="
M599.462891,381.875916 
	C597.199341,381.587921 595.404114,381.338867 593.608948,381.089844 
	C593.571899,380.832336 593.534851,380.574860 593.497803,380.317383 
	C594.961243,380.213074 596.424500,380.022949 597.888245,380.018402 
	C607.187805,379.989563 616.487549,380.014557 625.787231,379.996490 
	C633.712891,379.981079 633.964050,379.716644 634.032471,372.055481 
	C634.044067,370.753174 634.144287,369.451447 634.226868,368.150909 
	C634.230591,368.092499 634.524231,367.968658 634.584839,368.012085 
	C634.850281,368.202179 635.079651,368.442749 635.536621,368.854370 
	C635.781982,369.374054 635.832642,369.703857 635.840820,370.034698 
	C636.113586,381.015289 636.111755,380.947144 625.253235,381.145477 
	C616.810669,381.299652 608.371765,381.651093 599.462891,381.875916 
z"/>
<path fill="#FFFFFF" opacity="1.000000" stroke="none" 
	d="
M624.612305,235.952698 
	C621.674011,234.818756 618.725647,233.361740 615.777344,231.904739 
	C616.201843,231.223373 616.626343,230.541992 617.050903,229.860626 
	C619.567993,231.783646 622.085144,233.706650 624.612305,235.952698 
z"/>
<path fill="#FFFFFF" opacity="1.000000" stroke="none" 
	d="
M612.417114,227.547806 
	C612.355530,227.460419 612.593567,227.426819 612.593567,227.426819 
	C612.593567,227.426819 612.478699,227.635193 612.417114,227.547806 
z"/>
<path fill="#63EFDC" opacity="1.000000" stroke="none" 
	d="
M546.979797,357.042694 
	C547.522888,357.172485 547.811523,357.302612 548.100159,357.432709 
	C547.360168,357.442047 546.620117,357.451355 545.880127,357.460693 
	C546.161865,357.321472 546.443604,357.182220 546.979797,357.042694 
z"/>
<path fill="#FFFFFF" opacity="1.000000" stroke="none" 
	d="
M738.091797,360.199585 
	C738.250732,360.167938 738.528748,360.362030 738.915283,360.790527 
	C738.752869,360.825043 738.481873,360.625183 738.091797,360.199585 
z"/>
<path fill="#B8FDA8" opacity="1.000000" stroke="none" 
	d="
M811.407166,212.558014 
	C811.330811,212.455246 811.615967,212.409348 811.615967,212.409348 
	C811.615967,212.409348 811.483521,212.660797 811.407166,212.558014 
z"/>
<path fill="#B8FDA8" opacity="1.000000" stroke="none" 
	d="
M817.085754,354.098755 
	C816.972656,354.342804 816.792114,354.516235 816.611572,354.689667 
	C816.584351,354.487549 816.557129,354.285461 816.702637,353.989136 
	C816.875305,353.894928 817.018311,354.028107 817.085754,354.098755 
z"/>
<path fill="#B8FDA8" opacity="1.000000" stroke="none" 
	d="
M700.996765,462.995667 
	C700.903564,463.032166 700.813599,463.072998 700.865784,463.059875 
	C701.007935,463.005981 701.000000,463.000000 700.996765,462.995667 
z"/>
</svg>